<?xml version="1.0" encoding="UTF-8"?>
<svg xmlns="http://www.w3.org/2000/svg" xmlns:xlink="http://www.w3.org/1999/xlink" width="255.118pt" height="160.215pt" viewBox="0 0 255.118 160.215">
<defs>
<g>
<g id="glyph-0-0">
<path d="M 1.578125 1.5625 C 1.484375 1.71875 1.296875 1.828125 1.171875 1.828125 C 1.046875 1.828125 1.015625 1.765625 0.953125 1.671875 C 0.875 1.5625 0.703125 1.390625 0.515625 1.390625 C 0.265625 1.390625 0.171875 1.5625 0.171875 1.71875 C 0.171875 1.90625 0.390625 2.125 1 2.125 C 1.359375 2.125 1.75 1.9375 2.03125 1.5625 C 2.28125 1.21875 2.484375 0.53125 2.828125 -1.15625 C 2.96875 -1.859375 3.109375 -2.578125 3.25 -3.328125 L 3.28125 -3.484375 L 4.109375 -3.484375 C 4.1875 -3.484375 4.3125 -3.515625 4.34375 -3.59375 C 4.34375 -3.59375 4.375 -3.78125 4.375 -3.78125 C 4.375 -3.8125 4.359375 -3.828125 4.3125 -3.828125 L 3.34375 -3.828125 L 3.4375 -4.34375 C 3.5625 -5 3.6875 -5.40625 3.8125 -5.640625 C 3.953125 -5.890625 4.0625 -5.96875 4.171875 -5.96875 C 4.3125 -5.96875 4.328125 -5.890625 4.359375 -5.71875 C 4.40625 -5.53125 4.46875 -5.296875 4.75 -5.296875 C 5.015625 -5.296875 5.078125 -5.5 5.078125 -5.578125 C 5.078125 -5.921875 4.78125 -6.234375 4.25 -6.234375 C 4.0625 -6.234375 3.8125 -6.125 3.640625 -5.984375 C 3.359375 -5.75 2.984375 -5.421875 2.640625 -3.828125 L 2.046875 -3.796875 C 1.890625 -3.796875 1.8125 -3.71875 1.796875 -3.65625 C 1.796875 -3.625 1.765625 -3.515625 1.765625 -3.5 C 1.765625 -3.484375 1.78125 -3.484375 1.8125 -3.484375 L 2.5625 -3.484375 C 2.34375 -2.46875 2.3125 -1.921875 2.1875 -1.265625 C 2.046875 -0.40625 1.90625 1.046875 1.578125 1.5625 Z M 1.578125 1.5625 "/>
</g>
<g id="glyph-1-0">
<path d="M 0.09375 -1.8125 C 0.09375 -3.578125 -1.046875 -4.1875 -2.625 -4.5 L -5.078125 -4.984375 C -5.328125 -5.015625 -5.46875 -5.171875 -5.5 -5.53125 L -5.515625 -5.75 C -5.515625 -5.796875 -5.546875 -5.828125 -5.578125 -5.828125 L -5.75 -5.875 L -5.765625 -5.859375 C -5.765625 -5.453125 -5.75 -5.109375 -5.75 -4.90625 C -5.75 -4.703125 -5.765625 -4.375 -5.765625 -3.96875 L -5.75 -3.953125 L -5.578125 -3.921875 C -5.546875 -3.90625 -5.515625 -3.9375 -5.515625 -3.96875 L -5.5 -4.203125 C -5.484375 -4.484375 -5.390625 -4.609375 -5.203125 -4.609375 C -5.171875 -4.609375 -5.125 -4.59375 -5.078125 -4.578125 L -2.46875 -4.078125 C -1.46875 -3.875 -0.28125 -3.53125 -0.28125 -2.0625 C -0.28125 -1.65625 -0.46875 -1.34375 -0.71875 -1.140625 C -0.96875 -0.953125 -1.234375 -0.90625 -1.53125 -0.90625 C -1.8125 -0.90625 -2.109375 -0.953125 -2.40625 -1.015625 L -5.109375 -1.53125 C -5.359375 -1.59375 -5.46875 -1.734375 -5.5 -2.09375 L -5.515625 -2.3125 C -5.515625 -2.359375 -5.546875 -2.375 -5.578125 -2.390625 L -5.75 -2.421875 L -5.765625 -2.40625 C -5.765625 -2 -5.75 -1.65625 -5.75 -1.3125 C -5.75 -0.96875 -5.765625 -0.640625 -5.765625 -0.234375 L -5.75 -0.203125 L -5.578125 -0.171875 C -5.546875 -0.171875 -5.515625 -0.203125 -5.515625 -0.234375 L -5.5 -0.453125 C -5.484375 -0.734375 -5.40625 -0.859375 -5.21875 -0.859375 C -5.1875 -0.859375 -5.140625 -0.859375 -5.109375 -0.84375 L -2.109375 -0.265625 C -1.875 -0.21875 -1.671875 -0.203125 -1.484375 -0.203125 C -0.203125 -0.203125 0.09375 -1.15625 0.09375 -1.8125 Z M 0.09375 -1.8125 "/>
</g>
<g id="glyph-2-0">
<path d="M -4.015625 -2.203125 L -1.890625 -2.921875 L -1.890625 -1.484375 Z M 0 -0.03125 L 0 -1.671875 L -0.296875 -1.671875 L -0.390625 -0.96875 L -1.546875 -1.375 L -1.546875 -3.03125 L -0.375 -3.421875 L -0.296875 -2.71875 L 0 -2.71875 L 0 -4.65625 L -0.296875 -4.65625 L -0.359375 -4.125 L -4.8125 -2.609375 L -4.8125 -2.15625 L -0.390625 -0.640625 L -0.296875 -0.03125 Z M 0 -0.03125 "/>
</g>
<g id="glyph-3-0">
<path d="M -0.390625 -2.765625 C -0.390625 -2.4375 -0.53125 -2.0625 -0.890625 -1.703125 L -3.328125 -1.703125 C -3.734375 -2.1875 -3.84375 -2.53125 -3.84375 -2.8125 C -3.84375 -3.484375 -3.234375 -3.9375 -2.09375 -3.9375 C -0.9375 -3.9375 -0.390625 -3.40625 -0.390625 -2.765625 Z M 0 -0.265625 L 0.09375 -1.609375 L -0.515625 -1.671875 C -0.03125 -2.0625 0.109375 -2.484375 0.109375 -2.90625 C 0.109375 -3.953125 -0.78125 -4.75 -2.15625 -4.75 C -3.546875 -4.75 -4.359375 -4 -4.359375 -3.046875 C -4.359375 -2.5625 -4.140625 -2.109375 -3.671875 -1.671875 L -5.25 -1.671875 L -6.515625 -1.71875 L -6.59375 -1.59375 L -6.1875 -0.21875 L -5.875 -0.21875 L -5.796875 -0.953125 L -1.875 -0.953125 C -1.46875 -0.953125 -0.890625 -0.953125 -0.4375 -0.9375 L -0.328125 -0.265625 Z M 0 -0.265625 "/>
</g>
<g id="glyph-3-1">
<path d="M -4.234375 -0.390625 L -2.90625 -0.3125 L -2.859375 -0.78125 L -3.859375 -1.015625 L -3.859375 -2.8125 L -0.3125 -0.265625 L 0 -0.265625 L 0 -3.75 L -1.453125 -3.84375 L -1.453125 -3.375 L -0.375 -3.109375 L -0.375 -1.171875 L -3.921875 -3.71875 L -4.234375 -3.71875 Z M -4.234375 -0.390625 "/>
</g>
<g id="glyph-3-2">
<path d="M -3.890625 -5.09375 L -3.765625 -5.75 L -1.0625 -4.921875 L -3.78125 -3.90625 L -3.890625 -4.5625 L -4.234375 -4.5625 L -4.234375 -2.59375 L -3.890625 -2.59375 L -3.78125 -3.25 L -1.046875 -2.25 L -3.78125 -1.34375 L -3.890625 -2.03125 L -4.234375 -2.03125 L -4.234375 0 L -3.890625 0 L -3.796875 -0.515625 L 0.046875 -1.9375 L 0.046875 -2.28125 L -3.109375 -3.453125 L 0.046875 -4.609375 L 0.046875 -4.9375 L -3.78125 -6.25 L -3.890625 -6.734375 L -4.234375 -6.734375 L -4.234375 -5.09375 Z M -3.890625 -5.09375 "/>
</g>
<g id="glyph-3-3">
<path d="M 0.109375 -1.34375 C 0.109375 -1.6875 -0.171875 -1.96875 -0.515625 -1.96875 C -0.875 -1.96875 -1.15625 -1.6875 -1.15625 -1.34375 C -1.15625 -0.984375 -0.875 -0.703125 -0.515625 -0.703125 C -0.171875 -0.703125 0.109375 -0.984375 0.109375 -1.34375 Z M 0.109375 -1.34375 "/>
</g>
<g id="glyph-3-4">
<path d="M 0.0625 -2.875 L 0.0625 -3.28125 L -5.5 -5.15625 L -5.609375 -5.9375 L -5.96875 -5.9375 L -5.96875 -3.875 L -5.5625 -3.875 L -5.484375 -4.65625 L -1.203125 -3.21875 L -5.484375 -1.71875 L -5.5625 -2.5625 L -5.96875 -2.5625 L -5.96875 -0.140625 L -5.609375 -0.140625 L -5.515625 -0.796875 Z M 0.0625 -2.875 "/>
</g>
<g id="glyph-3-5">
<path d="M -3.9375 -2.40625 C -3.9375 -2.953125 -3.484375 -3.375 -2.984375 -3.375 C -2.71875 -3.375 -2.515625 -3.28125 -2.515625 -2.84375 L -2.515625 -1.21875 C -3.546875 -1.328125 -3.9375 -1.90625 -3.9375 -2.40625 Z M -4.359375 -2.453125 C -4.359375 -1.34375 -3.4375 -0.40625 -2.078125 -0.40625 C -0.71875 -0.40625 0.109375 -1.1875 0.109375 -2.390625 C 0.109375 -3.203125 -0.28125 -3.78125 -0.921875 -4.109375 L -1.09375 -3.890625 C -0.71875 -3.5625 -0.46875 -3.21875 -0.46875 -2.65625 C -0.46875 -1.796875 -1.046875 -1.21875 -2.140625 -1.203125 L -2.140625 -4.046875 C -2.25 -4.09375 -2.4375 -4.109375 -2.640625 -4.109375 C -3.71875 -4.109375 -4.359375 -3.375 -4.359375 -2.453125 Z M -4.359375 -2.453125 "/>
</g>
<g id="glyph-3-6">
<path d="M 0 -0.375 L 0 -2.546875 L -0.328125 -2.546875 L -0.453125 -1.8125 C -0.90625 -1.796875 -1.484375 -1.796875 -1.875 -1.796875 L -2.546875 -1.796875 C -3.046875 -1.9375 -3.421875 -2.171875 -3.6875 -2.53125 L -3.59375 -2.640625 C -3.453125 -2.8125 -3.375 -2.984375 -3.375 -3.1875 C -3.375 -3.546875 -3.609375 -3.71875 -4.03125 -3.71875 C -4.21875 -3.609375 -4.359375 -3.34375 -4.359375 -3.0625 C -4.359375 -2.59375 -3.921875 -2.078125 -3.21875 -1.78125 L -4.265625 -1.6875 L -4.359375 -1.546875 L -3.8125 -0.296875 L -3.5 -0.296875 L -3.421875 -1.015625 C -3.0625 -1.03125 -2.796875 -1.03125 -2.296875 -1.03125 L -1.875 -1.03125 C -1.46875 -1.03125 -0.890625 -1.03125 -0.4375 -1.015625 L -0.328125 -0.375 Z M 0 -0.375 "/>
</g>
<g id="glyph-3-7">
<path d="M 0.109375 -1.78125 C 0.109375 -2.9375 -0.484375 -3.53125 -1.15625 -3.53125 C -1.71875 -3.53125 -2.140625 -3.1875 -2.46875 -2.296875 L -2.5625 -2.015625 C -2.796875 -1.40625 -2.9375 -1.203125 -3.34375 -1.203125 C -3.703125 -1.203125 -3.9375 -1.484375 -3.9375 -2.03125 C -3.9375 -2.234375 -3.890625 -2.4375 -3.796875 -2.640625 L -3.078125 -2.78125 L -3.078125 -3.25 L -3.984375 -3.28125 C -4.21875 -2.90625 -4.359375 -2.515625 -4.359375 -2.03125 C -4.359375 -1.03125 -3.75 -0.484375 -3.09375 -0.484375 C -2.484375 -0.484375 -2.125 -0.90625 -1.890625 -1.5625 L -1.734375 -1.96875 C -1.546875 -2.53125 -1.34375 -2.796875 -0.96875 -2.796875 C -0.5625 -2.796875 -0.28125 -2.484375 -0.28125 -1.796875 C -0.28125 -1.53125 -0.328125 -1.296875 -0.421875 -1.078125 L -1.203125 -0.90625 L -1.203125 -0.421875 L -0.21875 -0.453125 C 0 -0.890625 0.109375 -1.28125 0.109375 -1.78125 Z M 0.109375 -1.78125 "/>
</g>
<g id="glyph-3-8">
<path d="M -1 -1.578125 L -3.765625 -1.578125 L -3.765625 -2.796875 L -4.234375 -2.796875 L -4.234375 -1.59375 L -5.453125 -1.640625 L -5.453125 -1.109375 L -4.25 -0.875 L -4.15625 -0.078125 L -3.765625 -0.078125 L -3.765625 -0.828125 L -1.65625 -0.828125 C -1.3125 -0.828125 -1.125 -0.8125 -0.90625 -0.8125 C -0.203125 -0.8125 0.109375 -1.203125 0.109375 -1.828125 C 0.109375 -2.28125 -0.046875 -2.65625 -0.359375 -2.875 L -0.59375 -2.671875 C -0.421875 -2.4375 -0.34375 -2.265625 -0.34375 -2.0625 C -0.34375 -1.765625 -0.546875 -1.578125 -1 -1.578125 Z M -1 -1.578125 "/>
</g>
<g id="glyph-3-9">
<path d="M 0.09375 -3.71875 C 0.09375 -4.03125 -0.03125 -4.28125 -0.375 -4.484375 L -0.578125 -4.3125 C -0.453125 -4.21875 -0.375 -4.109375 -0.375 -3.96875 C -0.375 -3.765625 -0.515625 -3.640625 -0.90625 -3.640625 L -2.796875 -3.640625 C -3.921875 -3.640625 -4.359375 -3.1875 -4.359375 -2.25 C -4.359375 -1.34375 -3.921875 -0.6875 -3.25 -0.515625 C -3.015625 -0.546875 -2.875 -0.6875 -2.875 -0.9375 C -2.875 -1.171875 -3.03125 -1.328125 -3.3125 -1.40625 L -3.890625 -1.5625 C -3.9375 -1.75 -3.9375 -1.921875 -3.9375 -2.046875 C -3.9375 -2.640625 -3.734375 -2.890625 -2.859375 -2.890625 L -2.640625 -2.890625 C -2.5625 -2.53125 -2.4375 -2.15625 -2.34375 -1.875 C -1.90625 -0.671875 -1.5 -0.40625 -1 -0.40625 C -0.265625 -0.40625 0.109375 -0.953125 0.109375 -1.59375 C 0.109375 -2.125 -0.109375 -2.421875 -0.59375 -2.90625 C -0.171875 -2.984375 0.09375 -3.28125 0.09375 -3.71875 Z M -5.3125 -1.296875 C -5.3125 -1.59375 -5.53125 -1.828125 -5.828125 -1.828125 C -6.109375 -1.828125 -6.328125 -1.59375 -6.328125 -1.296875 C -6.328125 -1.015625 -6.109375 -0.765625 -5.828125 -0.765625 C -5.53125 -0.765625 -5.3125 -1.015625 -5.3125 -1.296875 Z M -5.3125 -3.171875 C -5.3125 -3.453125 -5.53125 -3.6875 -5.828125 -3.6875 C -6.109375 -3.6875 -6.328125 -3.453125 -6.328125 -3.171875 C -6.328125 -2.875 -6.109375 -2.625 -5.828125 -2.625 C -5.53125 -2.625 -5.3125 -2.875 -5.3125 -3.171875 Z M -1.140625 -1.203125 C -1.40625 -1.203125 -1.734375 -1.296875 -2.046875 -2.0625 C -2.109375 -2.25 -2.21875 -2.578125 -2.3125 -2.890625 L -0.9375 -2.890625 C -0.578125 -2.375 -0.46875 -2.21875 -0.46875 -1.90625 C -0.46875 -1.5 -0.65625 -1.203125 -1.140625 -1.203125 Z M -1.140625 -1.203125 "/>
</g>
<g id="glyph-3-10">
<path d="M -6.1875 -0.21875 L -5.875 -0.21875 L -5.796875 -0.953125 L -1.875 -0.953125 C -1.40625 -0.953125 -0.921875 -0.953125 -0.453125 -0.9375 L -0.328125 -0.21875 L 0 -0.21875 L 0 -2.4375 L -0.328125 -2.4375 L -0.453125 -1.71875 C -0.828125 -1.71875 -1.21875 -1.703125 -1.609375 -1.703125 L -2.21875 -2.296875 L 0 -3.671875 L 0 -4.875 L -0.328125 -4.875 L -0.421875 -4.296875 L -2.75 -2.828125 L -3.765625 -3.8125 L -3.890625 -4.640625 L -4.234375 -4.640625 L -4.234375 -2.578125 L -3.890625 -2.578125 L -3.734375 -3.234375 L -2.140625 -1.703125 L -5.25 -1.703125 L -6.515625 -1.734375 L -6.59375 -1.609375 Z M -6.1875 -0.21875 "/>
</g>
<g id="glyph-3-11">
<path d="M 0 -4.890625 L -0.328125 -4.890625 L -0.453125 -4.296875 L -2.953125 -4.296875 L -4.203125 -4.3125 L -4.296875 -4.234375 L -4.171875 -2.9375 L -3.84375 -2.9375 L -3.71875 -3.5625 L -1.09375 -3.546875 C -0.71875 -3.125 -0.515625 -2.703125 -0.515625 -2.296875 C -0.515625 -1.8125 -0.796875 -1.578125 -1.5625 -1.578125 L -2.953125 -1.578125 L -4.203125 -1.625 L -4.296875 -1.53125 L -4.171875 -0.21875 L -3.84375 -0.21875 L -3.71875 -0.859375 L -1.484375 -0.828125 C -0.3125 -0.828125 0.109375 -1.265625 0.109375 -1.984375 C 0.109375 -2.53125 -0.140625 -3.09375 -0.71875 -3.5625 L 0.078125 -3.65625 Z M 0 -4.890625 "/>
</g>
<g id="glyph-3-12">
<path d="M -4.359375 -3.359375 C -4.359375 -2.796875 -4.03125 -2.1875 -3.546875 -1.75 L -4.265625 -1.6875 L -4.359375 -1.546875 L -3.8125 -0.296875 L -3.5 -0.296875 L -3.421875 -1.015625 C -3.0625 -1.03125 -2.796875 -1.03125 -2.296875 -1.03125 L -1.875 -1.03125 C -1.46875 -1.03125 -0.890625 -1.03125 -0.453125 -1.015625 L -0.328125 -0.359375 L 0 -0.359375 L 0 -2.421875 L -0.328125 -2.421875 L -0.453125 -1.8125 C -0.890625 -1.796875 -1.484375 -1.796875 -1.875 -1.796875 L -3.171875 -1.796875 C -3.546875 -2.25 -3.71875 -2.59375 -3.71875 -3 C -3.71875 -3.53125 -3.453125 -3.75 -2.625 -3.75 L -1.875 -3.75 C -1.46875 -3.75 -0.890625 -3.734375 -0.453125 -3.734375 L -0.328125 -3.0625 L 0 -3.0625 L 0 -5.140625 L -0.328125 -5.140625 L -0.453125 -4.515625 C -0.890625 -4.5 -1.46875 -4.5 -1.875 -4.5 L -2.703125 -4.5 C -3.875 -4.5 -4.359375 -4.125 -4.359375 -3.359375 Z M -4.359375 -3.359375 "/>
</g>
<g id="glyph-3-13">
<path d="M -3.984375 -2.15625 C -3.984375 -2.703125 -3.546875 -3.03125 -2.921875 -3.03125 C -2.25 -3.03125 -1.78125 -2.6875 -1.78125 -2.109375 C -1.78125 -1.5625 -2.234375 -1.25 -2.875 -1.25 C -3.53125 -1.25 -3.984375 -1.59375 -3.984375 -2.15625 Z M -2.890625 -0.53125 C -2.28125 -0.53125 -1.859375 -0.78125 -1.625 -1.21875 C -1.21875 -0.765625 -0.921875 -0.609375 -0.640625 -0.609375 C -0.296875 -0.609375 -0.078125 -0.796875 0.03125 -1.203125 C 0.359375 -0.53125 0.671875 -0.328125 1.046875 -0.328125 C 1.6875 -0.328125 2.125 -0.875 2.125 -2.171875 C 2.125 -3.625 1.359375 -4.375 0.59375 -4.375 C -0.140625 -4.375 -0.5625 -3.921875 -0.5625 -2.9375 L -0.5625 -1.765625 C -0.5625 -1.34375 -0.71875 -1.25 -0.953125 -1.25 C -1.15625 -1.25 -1.328125 -1.328125 -1.53125 -1.46875 C -1.46875 -1.671875 -1.421875 -1.890625 -1.421875 -2.125 C -1.421875 -3.0625 -1.953125 -3.75 -2.890625 -3.75 C -3.21875 -3.75 -3.484375 -3.671875 -3.703125 -3.546875 L -3.703125 -4.421875 L -4.265625 -4.421875 L -4.359375 -4.28125 L -4 -3.28125 C -4.234375 -2.984375 -4.359375 -2.59375 -4.359375 -2.140625 C -4.359375 -1.21875 -3.828125 -0.53125 -2.890625 -0.53125 Z M 1.71875 -2.203125 C 1.71875 -1.5 1.484375 -1.046875 0.90625 -1.046875 C 0.609375 -1.046875 0.375 -1.15625 0.109375 -1.40625 C 0.109375 -1.515625 0.125 -1.640625 0.125 -1.765625 L 0.125 -2.8125 C 0.125 -3.453125 0.421875 -3.703125 0.828125 -3.703125 C 1.328125 -3.703125 1.71875 -3.171875 1.71875 -2.203125 Z M 1.71875 -2.203125 "/>
</g>
<g id="glyph-4-0">
<path d="M 1.71875 -3.1875 C 2.15625 -3.1875 2.421875 -2.84375 2.421875 -2.328125 C 2.421875 -1.8125 2.15625 -1.421875 1.6875 -1.421875 C 1.25 -1.421875 1 -1.78125 1 -2.3125 C 1 -2.828125 1.265625 -3.1875 1.71875 -3.1875 Z M 0.421875 -2.3125 C 0.421875 -1.828125 0.625 -1.5 0.96875 -1.3125 C 0.609375 -0.984375 0.484375 -0.734375 0.484375 -0.515625 C 0.484375 -0.234375 0.640625 -0.0625 0.953125 0.03125 C 0.421875 0.28125 0.25 0.53125 0.25 0.84375 C 0.25 1.34375 0.703125 1.703125 1.734375 1.703125 C 2.90625 1.703125 3.5 1.09375 3.5 0.46875 C 3.5 -0.109375 3.140625 -0.453125 2.34375 -0.453125 L 1.40625 -0.453125 C 1.078125 -0.453125 1 -0.578125 1 -0.765625 C 1 -0.921875 1.0625 -1.0625 1.171875 -1.21875 C 1.328125 -1.171875 1.515625 -1.140625 1.703125 -1.140625 C 2.453125 -1.140625 3 -1.5625 3 -2.3125 C 3 -2.578125 2.9375 -2.796875 2.828125 -2.96875 L 3.53125 -2.96875 L 3.53125 -3.40625 L 3.421875 -3.484375 L 2.625 -3.203125 C 2.390625 -3.390625 2.078125 -3.484375 1.71875 -3.484375 C 0.96875 -3.484375 0.421875 -3.0625 0.421875 -2.3125 Z M 1.765625 1.375 C 1.203125 1.375 0.84375 1.1875 0.84375 0.734375 C 0.84375 0.5 0.921875 0.296875 1.125 0.078125 C 1.21875 0.09375 1.3125 0.09375 1.40625 0.09375 L 2.25 0.09375 C 2.765625 0.09375 2.96875 0.34375 2.96875 0.65625 C 2.96875 1.0625 2.546875 1.375 1.765625 1.375 Z M 1.765625 1.375 "/>
</g>
<g id="glyph-5-0">
<path d="M 0.78125 5.390625 C 1.34375 5.390625 1.890625 5.390625 2.421875 5.40625 L 2.484375 5.953125 L 2.84375 5.953125 L 2.84375 3.609375 L 2.484375 3.609375 L 2.40625 4.53125 C 1.859375 4.546875 1.328125 4.546875 0.78125 4.546875 L 0.5 4.546875 C 0.375 4.234375 0.328125 3.953125 0.328125 3.59375 C 0.328125 2.234375 1.28125 1.390625 2.984375 1.390625 C 4.6875 1.390625 5.65625 2.3125 5.65625 3.546875 C 5.65625 3.90625 5.578125 4.234375 5.390625 4.5625 L 4.375 4.734375 L 4.375 5.296875 L 5.6875 5.25 C 5.96875 4.75 6.109375 4.1875 6.109375 3.46875 C 6.109375 1.640625 4.78125 0.421875 2.984375 0.421875 C 1.1875 0.421875 -0.140625 1.625 -0.140625 3.421875 C -0.140625 4.171875 0.078125 4.765625 0.390625 5.390625 Z M 0.78125 5.390625 "/>
</g>
<g id="glyph-5-1">
<path d="M 0 0.375 L 0 2.546875 L 0.328125 2.546875 L 0.453125 1.8125 C 0.90625 1.796875 1.484375 1.796875 1.875 1.796875 L 2.546875 1.796875 C 3.046875 1.9375 3.421875 2.171875 3.6875 2.53125 L 3.59375 2.640625 C 3.453125 2.8125 3.375 2.984375 3.375 3.1875 C 3.375 3.546875 3.609375 3.71875 4.03125 3.71875 C 4.21875 3.609375 4.359375 3.34375 4.359375 3.0625 C 4.359375 2.59375 3.921875 2.078125 3.21875 1.78125 L 4.265625 1.6875 L 4.359375 1.546875 L 3.8125 0.296875 L 3.5 0.296875 L 3.421875 1.015625 C 3.0625 1.03125 2.796875 1.03125 2.296875 1.03125 L 1.875 1.03125 C 1.46875 1.03125 0.890625 1.03125 0.4375 1.015625 L 0.328125 0.375 Z M 0 0.375 "/>
</g>
<g id="glyph-5-2">
<path d="M 3.9375 2.40625 C 3.9375 2.953125 3.484375 3.375 2.984375 3.375 C 2.71875 3.375 2.515625 3.28125 2.515625 2.84375 L 2.515625 1.21875 C 3.546875 1.328125 3.9375 1.90625 3.9375 2.40625 Z M 4.359375 2.453125 C 4.359375 1.34375 3.4375 0.40625 2.078125 0.40625 C 0.71875 0.40625 -0.109375 1.1875 -0.109375 2.390625 C -0.109375 3.203125 0.28125 3.78125 0.921875 4.109375 L 1.09375 3.890625 C 0.71875 3.5625 0.46875 3.21875 0.46875 2.65625 C 0.46875 1.796875 1.046875 1.21875 2.140625 1.203125 L 2.140625 4.046875 C 2.25 4.09375 2.4375 4.109375 2.640625 4.109375 C 3.71875 4.109375 4.359375 3.375 4.359375 2.453125 Z M 4.359375 2.453125 "/>
</g>
<g id="glyph-5-3">
<path d="M 4.359375 3.359375 C 4.359375 2.796875 4.03125 2.1875 3.546875 1.75 L 4.265625 1.6875 L 4.359375 1.546875 L 3.8125 0.296875 L 3.5 0.296875 L 3.421875 1.015625 C 3.0625 1.03125 2.796875 1.03125 2.296875 1.03125 L 1.875 1.03125 C 1.46875 1.03125 0.890625 1.03125 0.453125 1.015625 L 0.328125 0.359375 L 0 0.359375 L 0 2.421875 L 0.328125 2.421875 L 0.453125 1.8125 C 0.890625 1.796875 1.484375 1.796875 1.875 1.796875 L 3.171875 1.796875 C 3.546875 2.25 3.71875 2.59375 3.71875 3 C 3.71875 3.53125 3.453125 3.75 2.625 3.75 L 1.875 3.75 C 1.46875 3.75 0.890625 3.734375 0.453125 3.734375 L 0.328125 3.0625 L 0 3.0625 L 0 5.140625 L 0.328125 5.140625 L 0.453125 4.515625 C 0.890625 4.5 1.46875 4.5 1.875 4.5 L 2.703125 4.5 C 3.875 4.5 4.359375 4.125 4.359375 3.359375 Z M 4.359375 3.359375 "/>
</g>
<g id="glyph-5-4">
<path d="M 4.234375 0.390625 L 2.90625 0.3125 L 2.859375 0.78125 L 3.859375 1.015625 L 3.859375 2.8125 L 0.3125 0.265625 L 0 0.265625 L 0 3.75 L 1.453125 3.84375 L 1.453125 3.375 L 0.375 3.109375 L 0.375 1.171875 L 3.921875 3.71875 L 4.234375 3.71875 Z M 4.234375 0.390625 "/>
</g>
<g id="glyph-5-5">
<path d="M 1.875 1.046875 C 1.40625 1.046875 0.921875 1.03125 0.453125 1.03125 L 0.328125 0.328125 L 0 0.328125 L 0 2.625 L 0.328125 2.625 L 0.453125 1.8125 C 0.921875 1.8125 1.40625 1.796875 1.875 1.796875 L 3.765625 1.796875 L 3.765625 3.015625 L 4.234375 3.015625 L 4.234375 1.78125 C 5.09375 1.75 5.609375 1.875 5.921875 2.0625 C 6.0625 2.140625 6.171875 2.25 6.265625 2.359375 L 6.0625 2.609375 C 5.890625 2.828125 5.796875 3.03125 5.796875 3.25 C 5.796875 3.59375 5.96875 3.78125 6.203125 3.796875 C 6.546875 3.71875 6.6875 3.359375 6.6875 2.9375 C 6.6875 2.53125 6.5625 2.078125 6.140625 1.6875 C 5.734375 1.296875 5.203125 1.140625 4.25 1.046875 L 4.15625 0.296875 L 3.765625 0.296875 L 3.765625 1.046875 Z M 1.875 1.046875 "/>
</g>
<g id="glyph-5-6">
<path d="M 2.09375 1.203125 C 3.296875 1.203125 3.84375 1.78125 3.84375 2.4375 C 3.84375 2.734375 3.734375 3.046875 3.359375 3.484375 L 0.953125 3.484375 C 0.546875 3.125 0.390625 2.84375 0.390625 2.4375 C 0.390625 1.734375 0.921875 1.203125 2.09375 1.203125 Z M -0.234375 4.234375 L 3.0625 4.234375 L 4.265625 4.25 L 4.359375 4.109375 L 3.734375 3.5 C 4.203125 3.109375 4.359375 2.703125 4.359375 2.28125 C 4.359375 1.21875 3.4375 0.40625 2.0625 0.40625 C 0.765625 0.40625 -0.109375 1.140625 -0.109375 2.21875 C -0.109375 2.75 0.09375 3.15625 0.59375 3.5 L -0.234375 3.5 C -0.71875 3.5 -1.203125 3.5 -1.6875 3.484375 L -1.8125 2.671875 L -2.125 2.671875 L -2.125 4.953125 L -1.8125 4.953125 L -1.6875 4.25 C -1.203125 4.234375 -0.71875 4.234375 -0.234375 4.234375 Z M -0.234375 4.234375 "/>
</g>
<g id="glyph-5-7">
<path d="M 0 4.890625 L 0.328125 4.890625 L 0.453125 4.296875 L 2.953125 4.296875 L 4.203125 4.3125 L 4.296875 4.234375 L 4.171875 2.9375 L 3.84375 2.9375 L 3.71875 3.5625 L 1.09375 3.546875 C 0.71875 3.125 0.515625 2.703125 0.515625 2.296875 C 0.515625 1.8125 0.796875 1.578125 1.5625 1.578125 L 2.953125 1.578125 L 4.203125 1.625 L 4.296875 1.53125 L 4.171875 0.21875 L 3.84375 0.21875 L 3.71875 0.859375 L 1.484375 0.828125 C 0.3125 0.828125 -0.109375 1.265625 -0.109375 1.984375 C -0.109375 2.53125 0.140625 3.09375 0.71875 3.5625 L -0.078125 3.65625 Z M 0 4.890625 "/>
</g>
</g>
<clipPath id="clip-0">
<path clip-rule="nonzero" d="M 244 136 L 254.058594 136 L 254.058594 151 L 244 151 Z M 244 136 "/>
</clipPath>
<clipPath id="clip-1">
<path clip-rule="nonzero" d="M 3 12 L 254.058594 12 L 254.058594 155 L 3 155 Z M 3 12 "/>
</clipPath>
</defs>
<path fill="none" stroke-width="0.3985" stroke-linecap="butt" stroke-linejoin="miter" stroke="rgb(0%, 0%, 0%)" stroke-opacity="1" stroke-miterlimit="10" d="M -0.000546063 -0.000475135 L 236.504161 -0.000475135 " transform="matrix(0.995124, 0, 0, -0.995124, 15.055231, 143.479996)"/>
<path fill-rule="nonzero" fill="rgb(0%, 0%, 0%)" fill-opacity="1" d="M 253.464844 143.480469 L 250.503906 141.726562 L 250.503906 145.234375 Z M 253.464844 143.480469 "/>
<g clip-path="url(#clip-0)">
<path fill="none" stroke-width="0.3985" stroke-linecap="butt" stroke-linejoin="miter" stroke="rgb(0%, 0%, 0%)" stroke-opacity="1" stroke-miterlimit="10" d="M 3.17328 -0.000475135 L 0.197835 1.762025 L 0.197835 -1.762975 Z M 3.17328 -0.000475135 " transform="matrix(0.995124, 0, 0, -0.995124, 250.307036, 143.479996)"/>
</g>
<g fill="rgb(0%, 0%, 0%)" fill-opacity="1">
<use xlink:href="#glyph-0-0" x="246.930121" y="152.879939"/>
</g>
<path fill="none" stroke-width="0.3985" stroke-linecap="butt" stroke-linejoin="miter" stroke="rgb(0%, 0%, 0%)" stroke-opacity="1" stroke-miterlimit="10" d="M -0.000546063 -0.000475135 L -0.000546063 140.512761 " transform="matrix(0.995124, 0, 0, -0.995124, 15.055231, 143.479996)"/>
<path fill-rule="nonzero" fill="rgb(0%, 0%, 0%)" fill-opacity="1" stroke-width="0.3985" stroke-linecap="butt" stroke-linejoin="miter" stroke="rgb(0%, 0%, 0%)" stroke-opacity="1" stroke-miterlimit="10" d="M 3.172461 0.000546063 L 0.200941 1.763046 L 0.200941 -1.761954 Z M 3.172461 0.000546063 " transform="matrix(0, -0.995124, -0.995124, 0, 15.055231, 3.750743)"/>
<g fill="rgb(0%, 0%, 0%)" fill-opacity="1">
<use xlink:href="#glyph-1-0" x="9.751219" y="86.474305"/>
</g>
<g fill="rgb(0%, 0%, 0%)" fill-opacity="1">
<use xlink:href="#glyph-2-0" x="11.625038" y="81.727562"/>
</g>
<g fill="rgb(0%, 0%, 0%)" fill-opacity="1">
<use xlink:href="#glyph-3-0" x="9.751219" y="72.446039"/>
<use xlink:href="#glyph-3-1" x="9.751219" y="67.297663"/>
<use xlink:href="#glyph-3-2" x="9.751219" y="63.228929"/>
</g>
<g fill="rgb(0%, 0%, 0%)" fill-opacity="1">
<use xlink:href="#glyph-3-3" x="9.751219" y="57.223977"/>
</g>
<g fill="rgb(0%, 0%, 0%)" fill-opacity="1">
<use xlink:href="#glyph-3-4" x="9.751219" y="52.048833"/>
</g>
<g fill="rgb(0%, 0%, 0%)" fill-opacity="1">
<use xlink:href="#glyph-3-5" x="9.751219" y="46.659546"/>
<use xlink:href="#glyph-3-6" x="9.751219" y="42.108988"/>
</g>
<g fill="rgb(0%, 0%, 0%)" fill-opacity="1">
<use xlink:href="#glyph-3-7" x="9.751219" y="38.423929"/>
<use xlink:href="#glyph-3-8" x="9.751219" y="34.551493"/>
<use xlink:href="#glyph-3-9" x="9.751219" y="31.651628"/>
</g>
<g fill="rgb(0%, 0%, 0%)" fill-opacity="1">
<use xlink:href="#glyph-3-6" x="9.751219" y="27.154607"/>
</g>
<g fill="rgb(0%, 0%, 0%)" fill-opacity="1">
<use xlink:href="#glyph-3-10" x="9.751219" y="23.47847"/>
<use xlink:href="#glyph-3-11" x="9.751219" y="18.597774"/>
<use xlink:href="#glyph-3-12" x="9.751219" y="13.395862"/>
<use xlink:href="#glyph-3-13" x="9.751219" y="7.988729"/>
</g>
<g clip-path="url(#clip-1)">
<path fill="none" stroke-width="0.79701" stroke-linecap="butt" stroke-linejoin="miter" stroke="rgb(0%, 62.745667%, 86.274719%)" stroke-opacity="1" stroke-miterlimit="10" d="M -0.000546063 -0.000475135 L 20.293717 -0.000475135 C 24.988482 -0.000475135 29.687173 3.701167 30.782357 8.27032 L 55.610444 111.72003 C 56.705628 116.285258 61.400394 119.9869 66.099085 119.9869 L 235.177379 119.9869 " transform="matrix(0.995124, 0, 0, -0.995124, 15.055231, 143.479996)"/>
</g>
<path fill="none" stroke-width="0.3985" stroke-linecap="butt" stroke-linejoin="miter" stroke="rgb(50%, 50%, 50%)" stroke-opacity="1" stroke-dasharray="2.98883 2.98883" stroke-miterlimit="10" d="M 49.196358 -0.000475135 L 49.196358 143.986731 " transform="matrix(0.995124, 0, 0, -0.995124, 15.055231, 143.479996)"/>
<g fill="rgb(50%, 50%, 50%)" fill-opacity="1">
<use xlink:href="#glyph-0-0" x="60.091568" y="152.879939"/>
</g>
<g fill="rgb(50%, 50%, 50%)" fill-opacity="1">
<use xlink:href="#glyph-4-0" x="63.847167" y="154.753758"/>
</g>
<g fill="rgb(50%, 50%, 50%)" fill-opacity="1">
<use xlink:href="#glyph-5-0" x="69.314379" y="78.009778"/>
<use xlink:href="#glyph-5-1" x="69.314379" y="84.095034"/>
</g>
<g fill="rgb(50%, 50%, 50%)" fill-opacity="1">
<use xlink:href="#glyph-5-2" x="69.314379" y="87.780093"/>
<use xlink:href="#glyph-5-3" x="69.314379" y="92.330651"/>
<use xlink:href="#glyph-5-4" x="69.314379" y="97.737784"/>
<use xlink:href="#glyph-5-5" x="69.314379" y="101.806518"/>
<use xlink:href="#glyph-5-1" x="69.314379" y="104.96514"/>
</g>
<g fill="rgb(50%, 50%, 50%)" fill-opacity="1">
<use xlink:href="#glyph-5-2" x="69.314379" y="108.650199"/>
<use xlink:href="#glyph-5-6" x="69.314379" y="113.200757"/>
<use xlink:href="#glyph-5-7" x="69.314379" y="118.17068"/>
</g>
<g fill="rgb(50%, 50%, 50%)" fill-opacity="1">
<use xlink:href="#glyph-5-2" x="69.314379" y="123.283365"/>
<use xlink:href="#glyph-5-3" x="69.314379" y="127.833922"/>
<use xlink:href="#glyph-5-4" x="69.314379" y="133.241056"/>
</g>
</svg>
