<?xml version="1.0" encoding="UTF-8"?>
<svg xmlns="http://www.w3.org/2000/svg" xmlns:xlink="http://www.w3.org/1999/xlink" width="254.92pt" height="34.646pt" viewBox="0 0 254.92 34.646">
<defs>
<clipPath id="clip-0">
<path clip-rule="nonzero" d="M 108 3 L 147 3 L 147 34.296875 L 108 34.296875 Z M 108 3 "/>
</clipPath>
<clipPath id="clip-1">
<path clip-rule="nonzero" d="M 119 13 L 120 13 L 120 34.296875 L 119 34.296875 Z M 119 13 "/>
</clipPath>
</defs>
<path fill="none" stroke-width="0.3985" stroke-linecap="butt" stroke-linejoin="miter" stroke="rgb(0%, 0%, 0%)" stroke-opacity="1" stroke-miterlimit="10" d="M 84.841237 0.00185363 L 119.326752 0.00185363 M 135.198218 0.00185363 L 169.683734 0.00185363 " transform="matrix(0.989886, 0, 0, -0.989886, 1.446559, 24.07996)"/>
<g clip-path="url(#clip-0)">
<path fill="none" stroke-width="0.797" stroke-linecap="butt" stroke-linejoin="miter" stroke="rgb(0%, 0%, 0%)" stroke-opacity="1" stroke-miterlimit="10" d="M 119.326752 0.00185363 L 135.198218 9.922506 L 135.198218 -9.922745 Z M 119.326752 0.00185363 " transform="matrix(0.989886, 0, 0, -0.989886, 1.446559, 24.07996)"/>
</g>
<path fill="none" stroke-width="0.3985" stroke-linecap="butt" stroke-linejoin="miter" stroke="rgb(0%, 0%, 0%)" stroke-opacity="1" stroke-miterlimit="10" d="M 119.326752 0.00185363 L 135.198218 0.00185363 " transform="matrix(0.989886, 0, 0, -0.989886, 1.446559, 24.07996)"/>
<g clip-path="url(#clip-1)">
<path fill="none" stroke-width="0.797" stroke-linecap="butt" stroke-linejoin="miter" stroke="rgb(0%, 0%, 0%)" stroke-opacity="1" stroke-miterlimit="10" d="M 119.326752 -9.922745 L 119.326752 9.922506 " transform="matrix(0.989886, 0, 0, -0.989886, 1.446559, 24.07996)"/>
</g>
<path fill="none" stroke-width="0.3985" stroke-linecap="butt" stroke-linejoin="miter" stroke="rgb(0%, 0%, 0%)" stroke-opacity="1" stroke-miterlimit="10" d="M 135.198218 20.525845 L 128.395034 20.525845 M 126.129937 20.525845 L 119.326752 20.525845 " transform="matrix(0.989886, 0, 0, -0.989886, 1.446559, 24.07996)"/>
<path fill="none" stroke-width="0.797" stroke-linecap="butt" stroke-linejoin="miter" stroke="rgb(0%, 0%, 0%)" stroke-opacity="1" stroke-miterlimit="10" d="M 128.395034 17.124253 L 128.395034 23.927438 M 126.129937 17.124253 L 126.129937 23.927438 " transform="matrix(0.989886, 0, 0, -0.989886, 1.446559, 24.07996)"/>
</svg>
