<?xml version="1.0" encoding="UTF-8"?>
<svg xmlns="http://www.w3.org/2000/svg" xmlns:xlink="http://www.w3.org/1999/xlink" width="254.92pt" height="30.361pt" viewBox="0 0 254.92 30.361">
<defs>
<clipPath id="clip-0">
<path clip-rule="nonzero" d="M 108 0 L 147 0 L 147 29.734375 L 108 29.734375 Z M 108 0 "/>
</clipPath>
<clipPath id="clip-1">
<path clip-rule="nonzero" d="M 119 9 L 121 9 L 121 29.734375 L 119 29.734375 Z M 119 9 "/>
</clipPath>
</defs>
<path fill="none" stroke-width="0.3985" stroke-linecap="butt" stroke-linejoin="miter" stroke="rgb(0%, 0%, 0%)" stroke-opacity="1" stroke-miterlimit="10" d="M 84.840771 -0.00103069 L 119.32503 -0.00103069 M 135.199116 -0.00103069 L 169.683374 -0.00103069 " transform="matrix(0.979387, 0, 0, -0.979387, 2.783043, 19.627897)"/>
<g clip-path="url(#clip-0)">
<path fill="none" stroke-width="0.797" stroke-linecap="butt" stroke-linejoin="miter" stroke="rgb(0%, 0%, 0%)" stroke-opacity="1" stroke-miterlimit="10" d="M 119.32503 -0.00103069 L 135.199116 9.922267 L 135.199116 -9.92034 Z M 119.32503 -0.00103069 " transform="matrix(0.979387, 0, 0, -0.979387, 2.783043, 19.627897)"/>
</g>
<path fill="none" stroke-width="0.3985" stroke-linecap="butt" stroke-linejoin="miter" stroke="rgb(0%, 0%, 0%)" stroke-opacity="1" stroke-miterlimit="10" d="M 119.32503 -0.00103069 L 135.199116 -0.00103069 " transform="matrix(0.979387, 0, 0, -0.979387, 2.783043, 19.627897)"/>
<g clip-path="url(#clip-1)">
<path fill="none" stroke-width="0.797" stroke-linecap="butt" stroke-linejoin="miter" stroke="rgb(0%, 0%, 0%)" stroke-opacity="1" stroke-miterlimit="10" d="M 119.32503 -9.92034 L 119.32503 9.922267 " transform="matrix(0.979387, 0, 0, -0.979387, 2.783043, 19.627897)"/>
</g>
<path fill="none" stroke-width="0.3985" stroke-linecap="butt" stroke-linejoin="miter" stroke="rgb(0%, 0%, 0%)" stroke-opacity="1" stroke-miterlimit="10" d="M 122.499847 19.841577 L 128.267165 12.634423 " transform="matrix(0.979387, 0, 0, -0.979387, 2.783043, 19.627897)"/>
<path fill-rule="nonzero" fill="rgb(0%, 0%, 0%)" fill-opacity="1" stroke-width="0.3985" stroke-linecap="butt" stroke-linejoin="miter" stroke="rgb(0%, 0%, 0%)" stroke-opacity="1" stroke-miterlimit="10" d="M 3.173799 0.0017821 L 0.199901 1.762804 L 0.199917 -1.76176 Z M 3.173799 0.0017821 " transform="matrix(0.611774, 0.764725, 0.764725, -0.611774, 128.346052, 7.179475)"/>
<path fill="none" stroke-width="0.3985" stroke-linecap="butt" stroke-linejoin="miter" stroke="rgb(0%, 0%, 0%)" stroke-opacity="1" stroke-miterlimit="10" d="M 117.737621 17.85931 L 123.50494 10.648168 " transform="matrix(0.979387, 0, 0, -0.979387, 2.783043, 19.627897)"/>
<path fill-rule="nonzero" fill="rgb(0%, 0%, 0%)" fill-opacity="1" stroke-width="0.3985" stroke-linecap="butt" stroke-linejoin="miter" stroke="rgb(0%, 0%, 0%)" stroke-opacity="1" stroke-miterlimit="10" d="M 3.175267 0.000407858 L 0.198254 1.763922 L 0.198263 0.00163978 L 0.201386 -1.763134 Z M 3.175267 0.000407858 " transform="matrix(0.611774, 0.764725, 0.764725, -0.611774, 123.682142, 9.122824)"/>
</svg>
