<?xml version="1.0" encoding="UTF-8"?>
<svg xmlns="http://www.w3.org/2000/svg" xmlns:xlink="http://www.w3.org/1999/xlink" width="253.516pt" height="216.582pt" viewBox="0 0 253.516 216.582">
<defs>
<g>
<g id="glyph-0-0">
<path d="M 4.9375 -6.84375 L 6.09375 -6.703125 L 6.09375 -1.875 L 2.28125 -7.296875 L 0.484375 -7.296875 L 0.484375 -6.84375 L 1.34375 -6.78125 L 1.34375 -0.578125 L 0.421875 -0.453125 L 0.421875 0 L 3.0625 0 L 3.0625 -0.453125 L 1.90625 -0.59375 L 1.90625 -6.078125 L 6.265625 0.078125 L 6.640625 0.078125 L 6.640625 -6.703125 L 7.5625 -6.84375 L 7.5625 -7.296875 L 4.9375 -7.296875 Z M 4.9375 -6.84375 "/>
</g>
<g id="glyph-0-1">
<path d="M 3.21875 -6.796875 C 4.515625 -6.796875 5.09375 -6.171875 5.09375 -5.125 C 5.09375 -4.09375 4.578125 -3.390625 3.25 -3.390625 L 2.53125 -3.390625 L 2.53125 -3.90625 C 2.53125 -4.875 2.53125 -5.84375 2.5625 -6.796875 Z M 0.484375 -6.84375 L 1.484375 -6.734375 C 1.5 -5.796875 1.5 -4.84375 1.5 -3.90625 L 1.5 -3.375 C 1.5 -2.421875 1.5 -1.484375 1.484375 -0.5625 L 0.484375 -0.453125 L 0.484375 0 L 3.578125 0 L 3.578125 -0.453125 L 2.5625 -0.5625 C 2.53125 -1.34375 2.53125 -2.09375 2.53125 -2.875 L 3.109375 -2.875 C 5.34375 -2.875 6.171875 -3.90625 6.171875 -5.125 C 6.171875 -6.390625 5.25 -7.296875 3.40625 -7.296875 L 0.484375 -7.296875 Z M 0.484375 -6.84375 "/>
</g>
<g id="glyph-1-0">
<path d="M 0.390625 -5.625 L 1.21875 -5.53125 C 1.234375 -4.765625 1.234375 -3.984375 1.234375 -3.21875 L 1.234375 -2.78125 C 1.234375 -2 1.234375 -1.21875 1.21875 -0.46875 L 0.390625 -0.359375 L 0.390625 0 L 5.03125 0 L 5.09375 -1.59375 L 4.578125 -1.59375 L 4.390625 -0.453125 L 2.109375 -0.453125 C 2.09375 -1.1875 2.09375 -1.953125 2.09375 -2.84375 L 3.40625 -2.84375 L 3.53125 -2 L 3.9375 -2 L 3.9375 -4.125 L 3.53125 -4.125 L 3.40625 -3.265625 L 2.09375 -3.265625 C 2.09375 -4 2.09375 -4.796875 2.109375 -5.546875 L 4.203125 -5.546875 L 4.40625 -4.40625 L 4.921875 -4.40625 L 4.859375 -6 L 0.390625 -6 Z M 0.390625 -5.625 "/>
</g>
<g id="glyph-1-1">
<path d="M 0.359375 0 L 2.4375 0 L 2.4375 -0.328125 L 1.8125 -0.453125 C 1.8125 -0.890625 1.796875 -1.484375 1.796875 -1.875 L 1.796875 -3.1875 C 2.234375 -3.5625 2.578125 -3.71875 2.984375 -3.71875 C 3.515625 -3.71875 3.71875 -3.453125 3.71875 -2.640625 L 3.71875 -1.875 C 3.71875 -1.46875 3.71875 -0.890625 3.703125 -0.453125 L 3.046875 -0.328125 L 3.046875 0 L 5.125 0 L 5.125 -0.328125 L 4.5 -0.453125 C 4.484375 -0.890625 4.46875 -1.46875 4.46875 -1.875 L 4.46875 -2.71875 C 4.46875 -2.875 4.46875 -3.03125 4.453125 -3.15625 C 4.921875 -3.578125 5.28125 -3.71875 5.65625 -3.71875 C 6.171875 -3.71875 6.40625 -3.484375 6.40625 -2.65625 L 6.40625 -1.875 C 6.40625 -1.46875 6.40625 -0.890625 6.390625 -0.453125 L 5.734375 -0.328125 L 5.734375 0 L 7.8125 0 L 7.8125 -0.328125 L 7.1875 -0.453125 C 7.171875 -0.890625 7.15625 -1.46875 7.15625 -1.875 L 7.15625 -2.796875 C 7.15625 -3.90625 6.734375 -4.375 6.015625 -4.375 C 5.4375 -4.375 4.859375 -4.078125 4.390625 -3.53125 C 4.25 -4.125 3.890625 -4.375 3.328125 -4.375 C 2.78125 -4.375 2.1875 -4.03125 1.765625 -3.546875 L 1.6875 -4.28125 L 1.5625 -4.375 L 0.296875 -3.828125 L 0.296875 -3.515625 L 1.015625 -3.421875 C 1.03125 -3.078125 1.03125 -2.796875 1.03125 -2.3125 L 1.03125 -1.875 C 1.03125 -1.484375 1.03125 -0.890625 1.015625 -0.453125 L 0.359375 -0.328125 Z M 0.359375 0 "/>
</g>
<g id="glyph-1-2">
<path d="M 0.3125 0 L 2.390625 0 L 2.390625 -0.328125 L 1.765625 -0.453125 C 1.765625 -0.890625 1.75 -1.484375 1.75 -1.875 L 1.75 -3.0625 L 1.78125 -4.28125 L 1.640625 -4.375 L 0.265625 -3.828125 L 0.265625 -3.515625 L 0.96875 -3.421875 C 0.984375 -3.078125 1 -2.796875 1 -2.296875 L 1 -1.875 C 1 -1.484375 0.984375 -0.890625 0.96875 -0.453125 L 0.3125 -0.328125 Z M 1.328125 -5.265625 C 1.65625 -5.265625 1.921875 -5.5 1.921875 -5.84375 C 1.921875 -6.171875 1.65625 -6.421875 1.328125 -6.421875 C 0.984375 -6.421875 0.71875 -6.171875 0.71875 -5.84375 C 0.71875 -5.5 0.984375 -5.265625 1.328125 -5.265625 Z M 1.328125 -5.265625 "/>
</g>
<g id="glyph-1-3">
<path d="M 1.828125 0.109375 C 2.296875 0.109375 2.65625 -0.046875 2.890625 -0.359375 L 2.671875 -0.59375 C 2.453125 -0.4375 2.28125 -0.34375 2.078125 -0.34375 C 1.765625 -0.34375 1.578125 -0.546875 1.578125 -1 L 1.578125 -3.78125 L 2.796875 -3.78125 L 2.796875 -4.25 L 1.59375 -4.25 L 1.640625 -5.46875 L 1.109375 -5.46875 L 0.875 -4.265625 L 0.078125 -4.171875 L 0.078125 -3.78125 L 0.828125 -3.78125 L 0.828125 -1.671875 C 0.828125 -1.3125 0.8125 -1.125 0.8125 -0.90625 C 0.8125 -0.203125 1.203125 0.109375 1.828125 0.109375 Z M 1.828125 0.109375 "/>
</g>
<g id="glyph-1-4">
<path d="M 2.453125 -3.953125 C 3.03125 -3.953125 3.390625 -3.609375 3.390625 -2.984375 C 3.390625 -2.734375 3.28125 -2.53125 2.796875 -2.53125 L 1.203125 -2.53125 C 1.3125 -3.5625 1.890625 -3.953125 2.453125 -3.953125 Z M 2.484375 0.109375 C 3.390625 0.109375 3.828125 -0.28125 4.203125 -0.890625 L 4.015625 -1.046875 C 3.65625 -0.640625 3.234375 -0.46875 2.6875 -0.46875 C 1.765625 -0.46875 1.203125 -1.046875 1.1875 -2.15625 L 4.0625 -2.15625 C 4.09375 -2.265625 4.125 -2.4375 4.125 -2.65625 C 4.125 -3.734375 3.390625 -4.375 2.453125 -4.375 C 1.328125 -4.375 0.40625 -3.453125 0.40625 -2.078125 C 0.40625 -0.703125 1.21875 0.109375 2.484375 0.109375 Z M 2.484375 0.109375 "/>
</g>
<g id="glyph-1-5">
<path d="M 0.375 0 L 2.546875 0 L 2.546875 -0.328125 L 1.8125 -0.453125 C 1.8125 -0.90625 1.796875 -1.484375 1.796875 -1.875 L 1.796875 -2.546875 C 1.953125 -3.0625 2.1875 -3.4375 2.546875 -3.703125 L 2.65625 -3.609375 C 2.8125 -3.46875 2.984375 -3.390625 3.203125 -3.390625 C 3.546875 -3.390625 3.71875 -3.609375 3.71875 -4.03125 C 3.609375 -4.234375 3.34375 -4.375 3.078125 -4.375 C 2.59375 -4.375 2.09375 -3.9375 1.796875 -3.21875 L 1.6875 -4.28125 L 1.5625 -4.375 L 0.296875 -3.828125 L 0.296875 -3.515625 L 1.015625 -3.421875 C 1.03125 -3.078125 1.03125 -2.796875 1.03125 -2.3125 L 1.03125 -1.875 C 1.03125 -1.484375 1.03125 -0.890625 1.015625 -0.4375 L 0.375 -0.328125 Z M 0.375 0 "/>
</g>
<g id="glyph-1-6">
<path d="M 2.578125 -2.890625 C 3.8125 -2.890625 4.34375 -2.46875 4.34375 -1.640625 C 4.34375 -0.84375 3.796875 -0.421875 2.65625 -0.421875 L 2.109375 -0.421875 C 2.09375 -1.1875 2.09375 -1.953125 2.09375 -2.890625 Z M 2.71875 -5.59375 C 3.640625 -5.59375 4.09375 -5.296875 4.09375 -4.46875 C 4.09375 -3.65625 3.640625 -3.296875 2.546875 -3.296875 L 2.09375 -3.296875 C 2.09375 -4.015625 2.09375 -4.8125 2.109375 -5.59375 Z M 0.390625 -5.625 L 1.21875 -5.53125 C 1.234375 -4.765625 1.234375 -3.984375 1.234375 -3.21875 L 1.234375 -2.78125 C 1.234375 -2 1.234375 -1.21875 1.21875 -0.46875 L 0.390625 -0.359375 L 0.390625 0 L 2.859375 0 C 4.578125 0 5.25 -0.828125 5.25 -1.640625 C 5.25 -2.359375 4.75 -2.953125 3.546875 -3.109375 C 4.546875 -3.328125 4.9375 -3.90625 4.9375 -4.546875 C 4.9375 -5.390625 4.234375 -6 2.984375 -6 L 0.390625 -6 Z M 0.390625 -5.625 "/>
</g>
<g id="glyph-1-7">
<path d="M 3.71875 0.09375 C 4.03125 0.09375 4.28125 -0.03125 4.5 -0.375 L 4.328125 -0.578125 C 4.21875 -0.453125 4.125 -0.375 3.96875 -0.375 C 3.78125 -0.375 3.65625 -0.515625 3.65625 -0.90625 L 3.65625 -2.8125 C 3.65625 -3.9375 3.203125 -4.375 2.265625 -4.375 C 1.359375 -4.375 0.6875 -3.9375 0.515625 -3.265625 C 0.546875 -3.03125 0.6875 -2.890625 0.9375 -2.890625 C 1.1875 -2.890625 1.328125 -3.046875 1.40625 -3.328125 L 1.578125 -3.90625 C 1.765625 -3.953125 1.921875 -3.953125 2.0625 -3.953125 C 2.65625 -3.953125 2.90625 -3.75 2.90625 -2.875 L 2.90625 -2.625 C 2.5625 -2.53125 2.234375 -2.421875 1.890625 -2.328125 C 0.640625 -1.96875 0.40625 -1.515625 0.40625 -1 C 0.40625 -0.265625 0.953125 0.109375 1.609375 0.109375 C 2.125 0.109375 2.421875 -0.109375 2.921875 -0.59375 C 2.984375 -0.171875 3.296875 0.09375 3.71875 0.09375 Z M 1.203125 -1.125 C 1.203125 -1.40625 1.265625 -1.765625 2.09375 -2.015625 C 2.359375 -2.109375 2.625 -2.203125 2.90625 -2.296875 L 2.90625 -0.953125 C 2.359375 -0.5625 2.1875 -0.46875 1.921875 -0.46875 C 1.5 -0.46875 1.203125 -0.65625 1.203125 -1.125 Z M 1.203125 -1.125 "/>
</g>
<g id="glyph-1-8">
<path d="M 1.796875 0.109375 C 2.953125 0.109375 3.53125 -0.484375 3.53125 -1.15625 C 3.53125 -1.734375 3.203125 -2.15625 2.296875 -2.484375 L 2.015625 -2.578125 C 1.421875 -2.796875 1.203125 -2.953125 1.203125 -3.34375 C 1.203125 -3.71875 1.484375 -3.953125 2.03125 -3.953125 C 2.25 -3.953125 2.453125 -3.90625 2.65625 -3.8125 L 2.796875 -3.09375 L 3.265625 -3.09375 L 3.296875 -4 C 2.90625 -4.234375 2.53125 -4.375 2.046875 -4.375 C 1.03125 -4.375 0.484375 -3.765625 0.484375 -3.109375 C 0.484375 -2.5 0.90625 -2.140625 1.5625 -1.890625 L 1.984375 -1.75 C 2.546875 -1.546875 2.8125 -1.359375 2.8125 -0.96875 C 2.8125 -0.5625 2.484375 -0.28125 1.8125 -0.28125 C 1.546875 -0.28125 1.296875 -0.328125 1.078125 -0.4375 L 0.90625 -1.203125 L 0.421875 -1.203125 L 0.453125 -0.21875 C 0.890625 0 1.296875 0.109375 1.796875 0.109375 Z M 1.796875 0.109375 "/>
</g>
<g id="glyph-1-9">
<path d="M 0.390625 -5.625 L 1.21875 -5.53125 C 1.234375 -4.765625 1.234375 -3.984375 1.234375 -3.21875 L 1.234375 -2.78125 C 1.234375 -2 1.234375 -1.21875 1.21875 -0.46875 L 0.390625 -0.359375 L 0.390625 0 L 2.921875 0 L 2.921875 -0.359375 L 2.0625 -0.46875 C 2.046875 -1.015625 2.046875 -1.5625 2.046875 -2.046875 L 2.9375 -3.109375 L 4.359375 -0.453125 L 3.625 -0.359375 L 3.625 0 L 5.921875 0 L 5.921875 -0.359375 L 5.234375 -0.453125 L 3.421875 -3.71875 L 4.921875 -5.515625 L 5.796875 -5.625 L 5.796875 -6 L 3.734375 -6 L 3.734375 -5.625 L 4.375 -5.5 L 2.046875 -2.65625 L 2.046875 -3.21875 C 2.046875 -4 2.046875 -4.765625 2.0625 -5.53125 L 2.921875 -5.625 L 2.921875 -6 L 0.390625 -6 Z M 0.390625 -5.625 "/>
</g>
<g id="glyph-1-10">
<path d="M 2.453125 0.109375 C 3.484375 0.109375 4.515625 -0.625 4.515625 -2.109375 C 4.515625 -3.59375 3.484375 -4.375 2.453125 -4.375 C 1.421875 -4.375 0.40625 -3.59375 0.40625 -2.109375 C 0.40625 -0.625 1.40625 0.109375 2.453125 0.109375 Z M 2.453125 -0.28125 C 1.671875 -0.28125 1.25 -0.90625 1.25 -2.109375 C 1.25 -3.3125 1.671875 -3.953125 2.453125 -3.953125 C 3.21875 -3.953125 3.65625 -3.3125 3.65625 -2.109375 C 3.65625 -0.90625 3.21875 -0.28125 2.453125 -0.28125 Z M 2.453125 -0.28125 "/>
</g>
<g id="glyph-1-11">
<path d="M 0.21875 0 L 2.4375 0 L 2.4375 -0.328125 L 1.734375 -0.453125 C 1.71875 -0.921875 1.703125 -1.40625 1.703125 -1.875 L 1.703125 -5.265625 L 1.75 -6.546875 L 1.625 -6.625 L 0.21875 -6.21875 L 0.21875 -5.90625 L 0.953125 -5.8125 L 0.953125 -1.875 C 0.953125 -1.40625 0.953125 -0.9375 0.9375 -0.453125 L 0.21875 -0.328125 Z M 0.21875 0 "/>
</g>
<g id="glyph-1-12">
<path d="M 0.21875 0 L 2.4375 0 L 2.4375 -0.328125 L 1.734375 -0.453125 C 1.71875 -0.828125 1.703125 -1.234375 1.703125 -1.609375 L 2.296875 -2.21875 L 3.6875 0 L 4.890625 0 L 4.890625 -0.328125 L 4.3125 -0.4375 L 2.84375 -2.765625 L 3.828125 -3.78125 L 4.671875 -3.90625 L 4.671875 -4.25 L 2.578125 -4.25 L 2.578125 -3.90625 L 3.234375 -3.75 L 2.546875 -3.015625 L 1.703125 -2.15625 L 1.703125 -5.265625 L 1.75 -6.546875 L 1.625 -6.625 L 0.21875 -6.21875 L 0.21875 -5.90625 L 0.953125 -5.8125 L 0.953125 -1.875 C 0.953125 -1.421875 0.953125 -0.921875 0.9375 -0.453125 L 0.21875 -0.328125 Z M 0.21875 0 "/>
</g>
<g id="glyph-2-0">
<path d="M 1.828125 0.09375 C 3.59375 0.09375 4.203125 -1.046875 4.515625 -2.640625 L 5 -5.109375 C 5.046875 -5.359375 5.1875 -5.484375 5.546875 -5.515625 L 5.78125 -5.53125 C 5.8125 -5.53125 5.84375 -5.5625 5.859375 -5.609375 L 5.890625 -5.78125 L 5.875 -5.796875 C 5.46875 -5.78125 5.125 -5.78125 4.921875 -5.78125 C 4.734375 -5.78125 4.390625 -5.78125 3.984375 -5.796875 L 3.96875 -5.78125 L 3.9375 -5.609375 C 3.921875 -5.5625 3.953125 -5.53125 3.984375 -5.53125 L 4.21875 -5.515625 C 4.5 -5.5 4.625 -5.421875 4.625 -5.234375 C 4.625 -5.1875 4.609375 -5.140625 4.609375 -5.109375 L 4.09375 -2.484375 C 3.890625 -1.484375 3.53125 -0.28125 2.078125 -0.28125 C 1.671875 -0.28125 1.359375 -0.46875 1.140625 -0.71875 C 0.953125 -0.96875 0.90625 -1.25 0.90625 -1.53125 C 0.90625 -1.8125 0.953125 -2.125 1.015625 -2.40625 L 1.546875 -5.125 C 1.59375 -5.375 1.734375 -5.484375 2.09375 -5.515625 L 2.3125 -5.53125 C 2.359375 -5.53125 2.390625 -5.5625 2.40625 -5.609375 L 2.4375 -5.78125 L 2.421875 -5.796875 C 2.015625 -5.78125 1.65625 -5.78125 1.3125 -5.78125 C 0.96875 -5.78125 0.640625 -5.78125 0.234375 -5.796875 L 0.203125 -5.78125 L 0.171875 -5.609375 C 0.171875 -5.5625 0.203125 -5.53125 0.234375 -5.53125 L 0.453125 -5.515625 C 0.734375 -5.5 0.875 -5.421875 0.875 -5.234375 C 0.875 -5.203125 0.859375 -5.171875 0.84375 -5.125 L 0.265625 -2.109375 C 0.21875 -1.875 0.203125 -1.671875 0.203125 -1.484375 C 0.203125 -0.203125 1.15625 0.09375 1.828125 0.09375 Z M 1.828125 0.09375 "/>
</g>
<g id="glyph-3-0">
<path d="M 0.171875 -0.140625 L 0.140625 0 L 0.15625 0.015625 C 0.484375 0 0.765625 0 1.03125 0 C 1.296875 0 1.390625 0.015625 2.015625 0.015625 C 3.375 0.015625 3.875 -0.703125 4 -1.3125 C 4.015625 -1.40625 4.03125 -1.5 4.03125 -1.578125 C 4.03125 -2.109375 3.6875 -2.421875 3.203125 -2.578125 L 3.203125 -2.59375 C 3.578125 -2.765625 3.953125 -3.140625 4.015625 -3.53125 C 4.03125 -3.609375 4.046875 -3.703125 4.046875 -3.796875 C 4.046875 -4.203125 3.8125 -4.625 2.765625 -4.625 C 2.515625 -4.625 2.203125 -4.609375 1.921875 -4.609375 C 1.65625 -4.609375 1.375 -4.625 1.0625 -4.625 L 1.03125 -4.609375 L 1.015625 -4.46875 C 1.015625 -4.4375 1.015625 -4.421875 1.046875 -4.421875 L 1.25 -4.40625 C 1.484375 -4.390625 1.5625 -4.359375 1.5625 -4.234375 C 1.5625 -4.203125 1.5625 -4.15625 1.546875 -4.109375 L 0.859375 -0.515625 C 0.796875 -0.25 0.734375 -0.234375 0.4375 -0.203125 L 0.234375 -0.1875 C 0.1875 -0.1875 0.171875 -0.171875 0.171875 -0.140625 Z M 1.78125 -2.375 L 2.25 -2.375 C 3.0625 -2.375 3.390625 -1.96875 3.390625 -1.453125 C 3.390625 -1.359375 3.390625 -1.28125 3.359375 -1.1875 C 3.25 -0.65625 2.96875 -0.234375 1.921875 -0.234375 C 1.53125 -0.234375 1.40625 -0.296875 1.40625 -0.453125 C 1.40625 -0.484375 1.40625 -0.515625 1.421875 -0.5625 Z M 2.109375 -4.078125 C 2.140625 -4.3125 2.15625 -4.390625 2.765625 -4.390625 C 3.09375 -4.390625 3.5 -4.21875 3.5 -3.6875 C 3.5 -3.609375 3.5 -3.53125 3.484375 -3.4375 C 3.359375 -2.828125 2.890625 -2.625 2.328125 -2.625 L 1.8125 -2.625 Z M 2.109375 -4.078125 "/>
</g>
<g id="glyph-3-1">
<path d="M 4.015625 -4.625 C 4.015625 -4.640625 4.015625 -4.640625 4 -4.640625 C 3.875 -4.625 3.828125 -4.609375 3.65625 -4.609375 L 1.921875 -4.609375 C 1.65625 -4.609375 1.375 -4.625 1.0625 -4.625 L 1.046875 -4.609375 L 1.015625 -4.46875 C 1.015625 -4.453125 1.015625 -4.421875 1.0625 -4.421875 L 1.265625 -4.40625 C 1.46875 -4.390625 1.5625 -4.34375 1.5625 -4.1875 C 1.5625 -4.15625 1.5625 -4.125 1.546875 -4.09375 L 0.859375 -0.515625 C 0.8125 -0.3125 0.71875 -0.234375 0.4375 -0.203125 L 0.234375 -0.1875 C 0.1875 -0.1875 0.171875 -0.171875 0.171875 -0.140625 L 0.140625 0 L 0.15625 0.015625 C 0.484375 0 0.765625 0 1.03125 0 L 2.5 0 C 2.828125 0 3.375 0.015625 3.375 0.015625 C 3.53125 -0.359375 3.703125 -0.8125 3.859375 -1.1875 L 3.65625 -1.21875 C 3.421875 -0.703125 3.0625 -0.28125 2.546875 -0.28125 L 1.625 -0.28125 C 1.484375 -0.28125 1.40625 -0.3125 1.40625 -0.4375 C 1.40625 -0.46875 1.40625 -0.484375 1.40625 -0.515625 L 1.765625 -2.3125 L 2.640625 -2.3125 C 2.84375 -2.3125 2.9375 -2.265625 2.9375 -2.09375 C 2.9375 -2.078125 2.921875 -2.0625 2.921875 -2.046875 L 2.90625 -1.859375 C 2.90625 -1.84375 2.90625 -1.796875 2.953125 -1.796875 L 3.09375 -1.796875 L 3.140625 -1.828125 C 3.15625 -2.109375 3.203125 -2.296875 3.234375 -2.453125 C 3.25 -2.59375 3.296875 -2.8125 3.375 -3.09375 L 3.359375 -3.125 L 3.203125 -3.125 C 3.171875 -3.125 3.15625 -3.09375 3.140625 -3.0625 L 3.09375 -2.890625 C 3.03125 -2.6875 2.921875 -2.578125 2.6875 -2.578125 L 1.8125 -2.578125 L 2.109375 -4.09375 C 2.140625 -4.265625 2.234375 -4.328125 2.40625 -4.328125 L 3.125 -4.328125 C 3.640625 -4.328125 3.703125 -4.046875 3.765625 -3.546875 L 3.96875 -3.578125 C 4 -3.875 4.015625 -4.5625 4.015625 -4.625 Z M 4.015625 -4.625 "/>
</g>
<g id="glyph-3-2">
<path d="M 1.921875 0.078125 C 2.59375 0.078125 3.265625 -0.25 3.859375 -0.890625 C 3.828125 -0.953125 3.796875 -1 3.71875 -1 C 3.125 -0.4375 2.609375 -0.21875 1.96875 -0.21875 C 1.109375 -0.21875 0.765625 -0.953125 0.765625 -1.78125 C 0.765625 -1.984375 0.78125 -2.1875 0.8125 -2.390625 C 1.109375 -3.84375 2.1875 -4.4375 2.734375 -4.4375 C 3.6875 -4.4375 3.96875 -3.859375 4.03125 -3.25 L 4.234375 -3.28125 C 4.25 -3.65625 4.265625 -4 4.296875 -4.390625 C 3.921875 -4.40625 3.703125 -4.703125 2.859375 -4.703125 C 1.71875 -4.703125 0.46875 -3.65625 0.1875 -2.25 C 0.15625 -2.078125 0.140625 -1.90625 0.140625 -1.71875 C 0.140625 -0.765625 0.6875 0.078125 1.921875 0.078125 Z M 1.921875 0.078125 "/>
</g>
</g>
<clipPath id="clip-0">
<path clip-rule="nonzero" d="M 217 98 L 253.03125 98 L 253.03125 99 L 217 99 Z M 217 98 "/>
</clipPath>
<clipPath id="clip-1">
<path clip-rule="nonzero" d="M 0.00390625 91 L 14 91 L 14 106 L 0.00390625 106 Z M 0.00390625 91 "/>
</clipPath>
<clipPath id="clip-2">
<path clip-rule="nonzero" d="M 6 98 L 253.03125 98 L 253.03125 205 L 6 205 Z M 6 98 "/>
</clipPath>
<clipPath id="clip-3">
<path clip-rule="nonzero" d="M 0.00390625 196 L 14 196 L 14 212 L 0.00390625 212 Z M 0.00390625 196 "/>
</clipPath>
<clipPath id="clip-4">
<path clip-rule="nonzero" d="M 0.00390625 213 L 13 213 L 13 215 L 0.00390625 215 Z M 0.00390625 213 "/>
</clipPath>
<clipPath id="clip-5">
<path clip-rule="nonzero" d="M 44 180 L 92 180 L 92 216.164062 L 44 216.164062 Z M 44 180 "/>
</clipPath>
<clipPath id="clip-6">
<path clip-rule="nonzero" d="M 48 184 L 88 184 L 88 216.164062 L 48 216.164062 Z M 48 184 "/>
</clipPath>
<clipPath id="clip-7">
<path clip-rule="nonzero" d="M 192 191 L 194 191 L 194 216.164062 L 192 216.164062 Z M 192 191 "/>
</clipPath>
</defs>
<path fill="none" stroke-width="0.3985" stroke-linecap="butt" stroke-linejoin="miter" stroke="rgb(0%, 0%, 0%)" stroke-opacity="1" stroke-miterlimit="10" d="M -0.00156148 -0.000707232 L 35.281246 -0.000707232 " transform="matrix(0.998074, 0, 0, -0.998074, 6.341402, 98.245388)"/>
<path fill-rule="nonzero" fill="rgb(50%, 81.370544%, 93.136597%)" fill-opacity="1" stroke-width="0.3985" stroke-linecap="butt" stroke-linejoin="miter" stroke="rgb(0%, 0%, 0%)" stroke-opacity="1" stroke-miterlimit="10" d="M 35.281246 -35.279601 L 35.281246 35.282101 L 105.842948 35.282101 L 105.842948 -35.279601 Z M 35.281246 -35.279601 " transform="matrix(0.998074, 0, 0, -0.998074, 6.341402, 98.245388)"/>
<path fill-rule="nonzero" fill="rgb(94.117737%, 65.687561%, 56.861877%)" fill-opacity="1" stroke-width="0.3985" stroke-linecap="butt" stroke-linejoin="miter" stroke="rgb(0%, 0%, 0%)" stroke-opacity="1" stroke-miterlimit="10" d="M 105.842948 -35.279601 L 105.842948 35.282101 L 141.125756 35.282101 L 141.125756 -35.279601 Z M 105.842948 -35.279601 " transform="matrix(0.998074, 0, 0, -0.998074, 6.341402, 98.245388)"/>
<path fill-rule="nonzero" fill="rgb(69.999695%, 88.822937%, 95.881653%)" fill-opacity="1" stroke-width="0.3985" stroke-linecap="butt" stroke-linejoin="miter" stroke="rgb(0%, 0%, 0%)" stroke-opacity="1" stroke-miterlimit="10" d="M 141.125756 -35.279601 L 141.125756 35.282101 L 211.687458 35.282101 L 211.687458 -35.279601 Z M 141.125756 -35.279601 " transform="matrix(0.998074, 0, 0, -0.998074, 6.341402, 98.245388)"/>
<g clip-path="url(#clip-0)">
<path fill="none" stroke-width="0.3985" stroke-linecap="butt" stroke-linejoin="miter" stroke="rgb(0%, 0%, 0%)" stroke-opacity="1" stroke-miterlimit="10" d="M 211.687458 -0.000707232 L 246.970266 -0.000707232 " transform="matrix(0.998074, 0, 0, -0.998074, 6.341402, 98.245388)"/>
</g>
<g fill="rgb(0%, 0%, 0%)" fill-opacity="1">
<use xlink:href="#glyph-0-0" x="72.766203" y="101.855421"/>
</g>
<g fill="rgb(0%, 0%, 0%)" fill-opacity="1">
<use xlink:href="#glyph-0-1" x="126.37973" y="101.893347"/>
</g>
<g fill="rgb(0%, 0%, 0%)" fill-opacity="1">
<use xlink:href="#glyph-0-0" x="178.404323" y="101.855421"/>
</g>
<g fill="rgb(0%, 0%, 0%)" fill-opacity="1">
<use xlink:href="#glyph-1-0" x="61.580791" y="145.412356"/>
<use xlink:href="#glyph-1-1" x="66.977103" y="145.412356"/>
<use xlink:href="#glyph-1-2" x="75.04025" y="145.412356"/>
<use xlink:href="#glyph-1-3" x="77.707084" y="145.412356"/>
</g>
<g fill="rgb(0%, 0%, 0%)" fill-opacity="1">
<use xlink:href="#glyph-1-3" x="80.696086" y="145.412356"/>
<use xlink:href="#glyph-1-4" x="83.604547" y="145.412356"/>
<use xlink:href="#glyph-1-5" x="88.168592" y="145.412356"/>
</g>
<g fill="rgb(0%, 0%, 0%)" fill-opacity="1">
<use xlink:href="#glyph-1-6" x="119.277437" y="145.412356"/>
<use xlink:href="#glyph-1-7" x="124.906427" y="145.412356"/>
<use xlink:href="#glyph-1-8" x="129.461523" y="145.412356"/>
<use xlink:href="#glyph-1-2" x="133.345436" y="145.412356"/>
<use xlink:href="#glyph-1-8" x="136.01227" y="145.412356"/>
</g>
<g fill="rgb(0%, 0%, 0%)" fill-opacity="1">
<use xlink:href="#glyph-1-9" x="163.944231" y="145.515158"/>
</g>
<g fill="rgb(0%, 0%, 0%)" fill-opacity="1">
<use xlink:href="#glyph-1-10" x="169.734304" y="145.515158"/>
</g>
<g fill="rgb(0%, 0%, 0%)" fill-opacity="1">
<use xlink:href="#glyph-1-11" x="174.557874" y="145.515158"/>
<use xlink:href="#glyph-1-11" x="177.224708" y="145.515158"/>
<use xlink:href="#glyph-1-4" x="179.891542" y="145.515158"/>
</g>
<g fill="rgb(0%, 0%, 0%)" fill-opacity="1">
<use xlink:href="#glyph-1-12" x="184.366096" y="145.515158"/>
<use xlink:href="#glyph-1-3" x="189.261259" y="145.515158"/>
<use xlink:href="#glyph-1-10" x="192.169719" y="145.515158"/>
<use xlink:href="#glyph-1-5" x="197.082779" y="145.515158"/>
</g>
<path fill="none" stroke-width="0.3985" stroke-linecap="butt" stroke-linejoin="miter" stroke="rgb(0%, 0%, 0%)" stroke-opacity="1" stroke-miterlimit="10" d="M -0.00156148 -0.000707232 L -0.00156148 35.282101 M -0.00156148 35.282101 L -0.00156148 70.560995 L 24.917533 70.560995 M 38.729295 84.173153 L 23.011518 84.173153 M 36.823279 70.560995 L 77.730202 70.560995 M 107.494567 70.560995 L 123.486309 70.560995 L 123.486309 52.921548 M 123.486309 52.921548 L 123.486309 35.282101 " transform="matrix(0.998074, 0, 0, -0.998074, 6.341402, 98.245388)"/>
<path fill-rule="nonzero" fill="rgb(0%, 0%, 0%)" fill-opacity="1" d="M 7.925781 98.246094 C 7.925781 97.371094 7.214844 96.660156 6.339844 96.660156 C 5.464844 96.660156 4.757812 97.371094 4.757812 98.246094 C 4.757812 99.121094 5.464844 99.828125 6.339844 99.828125 C 7.214844 99.828125 7.925781 99.121094 7.925781 98.246094 Z M 7.925781 98.246094 "/>
<g clip-path="url(#clip-1)">
<path fill="none" stroke-width="0.3985" stroke-linecap="butt" stroke-linejoin="miter" stroke="rgb(0%, 0%, 0%)" stroke-opacity="1" stroke-miterlimit="10" d="M 1.587437 -0.000707232 C 1.587437 0.875982 0.875127 1.588291 -0.00156148 1.588291 C -0.87825 1.588291 -1.586646 0.875982 -1.586646 -0.000707232 C -1.586646 -0.877396 -0.87825 -1.585792 -0.00156148 -1.585792 C 0.875127 -1.585792 1.587437 -0.877396 1.587437 -0.000707232 Z M 1.587437 -0.000707232 " transform="matrix(0.998074, 0, 0, -0.998074, 6.341402, 98.245388)"/>
</g>
<path fill="none" stroke-width="0.3985" stroke-linecap="butt" stroke-linejoin="miter" stroke="rgb(0%, 0%, 0%)" stroke-opacity="1" stroke-miterlimit="10" d="M 28.905684 70.560995 L 24.917533 70.560995 M 32.835128 70.560995 L 36.823279 70.560995 " transform="matrix(0.998074, 0, 0, -0.998074, 6.341402, 98.245388)"/>
<path fill="none" stroke-width="0.797" stroke-linecap="butt" stroke-linejoin="miter" stroke="rgb(0%, 0%, 0%)" stroke-opacity="1" stroke-miterlimit="10" d="M 32.835128 82.466741 L 32.835128 58.655249 " transform="matrix(0.998074, 0, 0, -0.998074, 6.341402, 98.245388)"/>
<path fill="none" stroke-width="2.39102" stroke-linecap="butt" stroke-linejoin="miter" stroke="rgb(0%, 0%, 0%)" stroke-opacity="1" stroke-miterlimit="10" d="M 28.905684 76.513868 L 28.905684 64.608122 " transform="matrix(0.998074, 0, 0, -0.998074, 6.341402, 98.245388)"/>
<path fill-rule="nonzero" fill="rgb(0%, 0%, 0%)" fill-opacity="1" stroke-width="0.3985" stroke-linecap="butt" stroke-linejoin="miter" stroke="rgb(0%, 0%, 0%)" stroke-opacity="1" stroke-miterlimit="10" d="M 27.230582 84.173153 L 27.230582 86.157444 L 23.011518 84.173153 L 27.230582 82.188862 Z M 27.230582 84.173153 " transform="matrix(0.998074, 0, 0, -0.998074, 6.341402, 98.245388)"/>
<g fill="rgb(0%, 0%, 0%)" fill-opacity="1">
<use xlink:href="#glyph-2-0" x="30.398971" y="7.778987"/>
</g>
<g fill="rgb(0%, 0%, 0%)" fill-opacity="1">
<use xlink:href="#glyph-3-0" x="35.159783" y="9.65836"/>
</g>
<g fill="rgb(0%, 0%, 0%)" fill-opacity="1">
<use xlink:href="#glyph-3-1" x="39.355123" y="9.65836"/>
</g>
<path fill="none" stroke-width="0.63483" stroke-linecap="round" stroke-linejoin="miter" stroke="rgb(0%, 0%, 0%)" stroke-opacity="1" stroke-miterlimit="10" d="M 77.730202 70.560995 L 107.494567 82.466741 " transform="matrix(0.998074, 0, 0, -0.998074, 6.341402, 98.245388)"/>
<path fill-rule="nonzero" fill="rgb(0%, 0%, 0%)" fill-opacity="1" stroke-width="0.3985" stroke-linecap="butt" stroke-linejoin="miter" stroke="rgb(0%, 0%, 0%)" stroke-opacity="1" stroke-miterlimit="10" d="M 79.3192 70.560995 C 79.3192 71.437683 78.606891 72.149993 77.730202 72.149993 C 76.853513 72.149993 76.145117 71.437683 76.145117 70.560995 C 76.145117 69.684306 76.853513 68.97591 77.730202 68.97591 C 78.606891 68.97591 79.3192 69.684306 79.3192 70.560995 Z M 79.3192 70.560995 " transform="matrix(0.998074, 0, 0, -0.998074, 6.341402, 98.245388)"/>
<path fill-rule="nonzero" fill="rgb(0%, 0%, 0%)" fill-opacity="1" stroke-width="0.3985" stroke-linecap="butt" stroke-linejoin="miter" stroke="rgb(0%, 0%, 0%)" stroke-opacity="1" stroke-miterlimit="10" d="M 109.083566 70.560995 C 109.083566 71.437683 108.371256 72.149993 107.494567 72.149993 C 106.617879 72.149993 105.909483 71.437683 105.909483 70.560995 C 105.909483 69.684306 106.617879 68.97591 107.494567 68.97591 C 108.371256 68.97591 109.083566 69.684306 109.083566 70.560995 Z M 109.083566 70.560995 " transform="matrix(0.998074, 0, 0, -0.998074, 6.341402, 98.245388)"/>
<g clip-path="url(#clip-2)">
<path fill="none" stroke-width="0.3985" stroke-linecap="butt" stroke-linejoin="miter" stroke="rgb(0%, 0%, 0%)" stroke-opacity="1" stroke-miterlimit="10" d="M -0.00156148 -0.000707232 L -0.00156148 -52.922962 M -0.00156148 -52.922962 L -0.00156148 -105.845217 L 49.836628 -105.845217 M 73.64812 -105.845217 L 179.273458 -105.845217 M 193.085219 -92.233059 L 177.367442 -92.233059 M 191.179204 -105.845217 L 246.970266 -105.845217 L 246.970266 -52.922962 M 246.970266 -52.922962 L 246.970266 -0.000707232 " transform="matrix(0.998074, 0, 0, -0.998074, 6.341402, 98.245388)"/>
</g>
<path fill-rule="nonzero" fill="rgb(0%, 0%, 0%)" fill-opacity="1" d="M 7.925781 203.886719 C 7.925781 203.011719 7.214844 202.300781 6.339844 202.300781 C 5.464844 202.300781 4.757812 203.011719 4.757812 203.886719 C 4.757812 204.761719 5.464844 205.46875 6.339844 205.46875 C 7.214844 205.46875 7.925781 204.761719 7.925781 203.886719 Z M 7.925781 203.886719 "/>
<g clip-path="url(#clip-3)">
<path fill="none" stroke-width="0.3985" stroke-linecap="butt" stroke-linejoin="miter" stroke="rgb(0%, 0%, 0%)" stroke-opacity="1" stroke-miterlimit="10" d="M 1.587437 -105.845217 C 1.587437 -104.968528 0.875127 -104.256219 -0.00156148 -104.256219 C -0.87825 -104.256219 -1.586646 -104.968528 -1.586646 -105.845217 C -1.586646 -106.721906 -0.87825 -107.430302 -0.00156148 -107.430302 C 0.875127 -107.430302 1.587437 -106.721906 1.587437 -105.845217 Z M 1.587437 -105.845217 " transform="matrix(0.998074, 0, 0, -0.998074, 6.341402, 98.245388)"/>
</g>
<path fill="none" stroke-width="0.3985" stroke-linecap="butt" stroke-linejoin="miter" stroke="rgb(0%, 0%, 0%)" stroke-opacity="1" stroke-miterlimit="10" d="M -0.00156148 -105.845217 L -0.00156148 -115.766672 " transform="matrix(0.998074, 0, 0, -0.998074, 6.341402, 98.245388)"/>
<g clip-path="url(#clip-4)">
<path fill="none" stroke-width="0.797" stroke-linecap="round" stroke-linejoin="miter" stroke="rgb(0%, 0%, 0%)" stroke-opacity="1" stroke-miterlimit="10" d="M -5.954435 -115.766672 L 5.951312 -115.766672 " transform="matrix(0.998074, 0, 0, -0.998074, 6.341402, 98.245388)"/>
</g>
<g clip-path="url(#clip-5)">
<path fill="none" stroke-width="0.797" stroke-linecap="butt" stroke-linejoin="miter" stroke="rgb(0%, 0%, 0%)" stroke-opacity="1" stroke-miterlimit="10" d="M 61.742374 -93.939471 C 55.167208 -93.939471 49.836628 -99.270052 49.836628 -105.845217 C 49.836628 -112.420383 55.167208 -117.750963 61.742374 -117.750963 C 68.317539 -117.750963 73.64812 -112.420383 73.64812 -105.845217 C 73.64812 -99.270052 68.317539 -93.939471 61.742374 -93.939471 Z M 61.742374 -93.939471 " transform="matrix(0.998074, 0, 0, -0.998074, 6.341402, 98.245388)"/>
</g>
<g clip-path="url(#clip-6)">
<path fill="none" stroke-width="0.797" stroke-linecap="butt" stroke-linejoin="miter" stroke="rgb(0%, 0%, 0%)" stroke-opacity="1" stroke-miterlimit="10" d="M 53.323814 -97.426657 L 70.160934 -114.263777 M 53.323814 -114.263777 L 70.160934 -97.426657 " transform="matrix(0.998074, 0, 0, -0.998074, 6.341402, 98.245388)"/>
</g>
<path fill="none" stroke-width="0.3985" stroke-linecap="butt" stroke-linejoin="miter" stroke="rgb(0%, 0%, 0%)" stroke-opacity="1" stroke-miterlimit="10" d="M 183.261609 -105.845217 L 179.273458 -105.845217 M 187.191053 -105.845217 L 191.179204 -105.845217 " transform="matrix(0.998074, 0, 0, -0.998074, 6.341402, 98.245388)"/>
<g clip-path="url(#clip-7)">
<path fill="none" stroke-width="0.797" stroke-linecap="butt" stroke-linejoin="miter" stroke="rgb(0%, 0%, 0%)" stroke-opacity="1" stroke-miterlimit="10" d="M 187.191053 -93.939471 L 187.191053 -117.750963 " transform="matrix(0.998074, 0, 0, -0.998074, 6.341402, 98.245388)"/>
</g>
<path fill="none" stroke-width="2.39102" stroke-linecap="butt" stroke-linejoin="miter" stroke="rgb(0%, 0%, 0%)" stroke-opacity="1" stroke-miterlimit="10" d="M 183.261609 -99.892344 L 183.261609 -111.79809 " transform="matrix(0.998074, 0, 0, -0.998074, 6.341402, 98.245388)"/>
<path fill-rule="nonzero" fill="rgb(0%, 0%, 0%)" fill-opacity="1" stroke-width="0.3985" stroke-linecap="butt" stroke-linejoin="miter" stroke="rgb(0%, 0%, 0%)" stroke-opacity="1" stroke-miterlimit="10" d="M 181.586507 -92.233059 L 181.586507 -90.248768 L 177.367442 -92.233059 L 181.586507 -94.21735 Z M 181.586507 -92.233059 " transform="matrix(0.998074, 0, 0, -0.998074, 6.341402, 98.245388)"/>
<g fill="rgb(0%, 0%, 0%)" fill-opacity="1">
<use xlink:href="#glyph-2-0" x="184.329887" y="183.785297"/>
</g>
<g fill="rgb(0%, 0%, 0%)" fill-opacity="1">
<use xlink:href="#glyph-3-2" x="189.090699" y="185.66467"/>
</g>
<g fill="rgb(0%, 0%, 0%)" fill-opacity="1">
<use xlink:href="#glyph-3-1" x="193.536613" y="185.66467"/>
</g>
</svg>
