<?xml version="1.0" encoding="UTF-8"?>
<svg xmlns="http://www.w3.org/2000/svg" xmlns:xlink="http://www.w3.org/1999/xlink" width="250.246pt" height="214.246pt" viewBox="0 0 250.246 214.246">
<defs>
<g>
<g id="glyph-0-0">
<path d="M 1.90625 -5.078125 L 1.046875 -0.671875 C 0.984375 -0.421875 0.859375 -0.296875 0.484375 -0.265625 L 0.21875 -0.234375 C 0.171875 -0.203125 0.15625 -0.0625 0.203125 0.015625 C 0.59375 0.015625 0.921875 0 1.265625 0 C 1.609375 0 2.015625 0.015625 2.40625 0.015625 C 2.4375 -0.015625 2.453125 -0.203125 2.4375 -0.234375 L 2.125 -0.265625 C 1.78125 -0.296875 1.6875 -0.40625 1.734375 -0.671875 L 2.59375 -5.078125 C 2.65625 -5.328125 2.78125 -5.453125 3.15625 -5.5 L 3.4375 -5.515625 C 3.46875 -5.5625 3.484375 -5.703125 3.453125 -5.78125 C 3.046875 -5.78125 2.71875 -5.765625 2.375 -5.765625 C 2.03125 -5.765625 1.640625 -5.78125 1.25 -5.78125 C 1.21875 -5.75 1.1875 -5.5625 1.21875 -5.515625 L 1.515625 -5.5 C 1.875 -5.46875 1.96875 -5.359375 1.90625 -5.078125 Z M 1.90625 -5.078125 "/>
</g>
<g id="glyph-0-1">
<path d="M 1.828125 0.09375 C 3.578125 0.09375 4.203125 -1.046875 4.5 -2.640625 L 4.984375 -5.09375 C 5.03125 -5.34375 5.171875 -5.484375 5.546875 -5.5 L 5.765625 -5.515625 C 5.8125 -5.515625 5.84375 -5.546875 5.84375 -5.59375 L 5.875 -5.765625 L 5.859375 -5.78125 C 5.453125 -5.78125 5.109375 -5.765625 4.921875 -5.765625 C 4.71875 -5.765625 4.375 -5.78125 3.984375 -5.78125 L 3.953125 -5.765625 L 3.921875 -5.59375 C 3.921875 -5.546875 3.953125 -5.515625 3.984375 -5.515625 L 4.203125 -5.5 C 4.5 -5.484375 4.609375 -5.40625 4.609375 -5.21875 C 4.609375 -5.1875 4.609375 -5.140625 4.59375 -5.09375 L 4.078125 -2.46875 C 3.890625 -1.46875 3.53125 -0.28125 2.078125 -0.28125 C 1.65625 -0.28125 1.34375 -0.46875 1.140625 -0.71875 C 0.953125 -0.96875 0.90625 -1.25 0.90625 -1.53125 C 0.90625 -1.8125 0.953125 -2.125 1.015625 -2.40625 L 1.53125 -5.109375 C 1.59375 -5.359375 1.734375 -5.484375 2.09375 -5.5 L 2.3125 -5.515625 C 2.359375 -5.515625 2.390625 -5.546875 2.390625 -5.59375 L 2.4375 -5.765625 L 2.40625 -5.78125 C 2.015625 -5.78125 1.65625 -5.765625 1.3125 -5.765625 C 0.96875 -5.765625 0.640625 -5.78125 0.234375 -5.78125 L 0.203125 -5.765625 L 0.171875 -5.59375 C 0.171875 -5.546875 0.203125 -5.515625 0.234375 -5.515625 L 0.453125 -5.5 C 0.734375 -5.484375 0.859375 -5.421875 0.859375 -5.234375 C 0.859375 -5.1875 0.859375 -5.15625 0.84375 -5.109375 L 0.265625 -2.109375 C 0.21875 -1.875 0.203125 -1.671875 0.203125 -1.484375 C 0.203125 -0.203125 1.15625 0.09375 1.828125 0.09375 Z M 1.828125 0.09375 "/>
</g>
<g id="glyph-1-0">
<path d="M 4.015625 -4.609375 C 4.015625 -4.625 4 -4.640625 3.984375 -4.640625 C 3.859375 -4.609375 3.8125 -4.609375 3.65625 -4.609375 L 1.921875 -4.609375 C 1.65625 -4.609375 1.375 -4.609375 1.0625 -4.625 L 1.046875 -4.609375 L 1.015625 -4.46875 C 1 -4.4375 1 -4.40625 1.0625 -4.40625 L 1.25 -4.40625 C 1.46875 -4.390625 1.5625 -4.328125 1.5625 -4.171875 C 1.5625 -4.15625 1.5625 -4.109375 1.546875 -4.078125 L 0.859375 -0.515625 C 0.8125 -0.3125 0.71875 -0.234375 0.4375 -0.203125 L 0.234375 -0.1875 C 0.1875 -0.1875 0.171875 -0.171875 0.171875 -0.140625 L 0.140625 0 L 0.15625 0.015625 C 0.484375 0 0.765625 0 1.03125 0 L 2.5 0 C 2.828125 0 3.375 0.015625 3.375 0.015625 C 3.515625 -0.359375 3.703125 -0.8125 3.859375 -1.171875 L 3.65625 -1.21875 C 3.40625 -0.703125 3.0625 -0.28125 2.546875 -0.28125 L 1.609375 -0.28125 C 1.484375 -0.28125 1.40625 -0.3125 1.40625 -0.4375 C 1.40625 -0.46875 1.40625 -0.484375 1.40625 -0.515625 L 1.75 -2.3125 L 2.625 -2.3125 C 2.84375 -2.3125 2.921875 -2.25 2.921875 -2.09375 C 2.921875 -2.078125 2.921875 -2.0625 2.921875 -2.03125 L 2.90625 -1.859375 C 2.90625 -1.828125 2.90625 -1.796875 2.9375 -1.796875 L 3.09375 -1.796875 L 3.125 -1.828125 C 3.15625 -2.109375 3.1875 -2.296875 3.21875 -2.4375 C 3.234375 -2.578125 3.296875 -2.796875 3.375 -3.078125 L 3.34375 -3.109375 L 3.203125 -3.109375 C 3.171875 -3.109375 3.140625 -3.078125 3.140625 -3.0625 L 3.078125 -2.875 C 3.015625 -2.671875 2.921875 -2.578125 2.6875 -2.578125 L 1.8125 -2.578125 L 2.09375 -4.078125 C 2.140625 -4.25 2.234375 -4.3125 2.40625 -4.3125 L 3.109375 -4.3125 C 3.625 -4.3125 3.703125 -4.03125 3.75 -3.546875 L 3.953125 -3.578125 C 3.984375 -3.875 4.015625 -4.5625 4.015625 -4.609375 Z M 4.015625 -4.609375 "/>
</g>
<g id="glyph-1-1">
<path d="M 0.171875 -0.140625 L 0.140625 0 L 0.15625 0.015625 C 0.484375 0 0.75 0 1.03125 0 C 1.296875 0 1.390625 0.015625 2 0.015625 C 3.375 0.015625 3.875 -0.703125 3.984375 -1.3125 C 4.015625 -1.40625 4.015625 -1.5 4.015625 -1.578125 C 4.015625 -2.09375 3.671875 -2.40625 3.1875 -2.578125 C 3.578125 -2.765625 3.9375 -3.140625 4.015625 -3.515625 C 4.03125 -3.609375 4.046875 -3.6875 4.046875 -3.78125 C 4.046875 -4.203125 3.8125 -4.625 2.75 -4.625 C 2.515625 -4.625 2.203125 -4.609375 1.921875 -4.609375 C 1.65625 -4.609375 1.375 -4.609375 1.0625 -4.625 L 1.03125 -4.609375 L 1 -4.46875 C 1 -4.4375 1.015625 -4.40625 1.046875 -4.40625 L 1.25 -4.40625 C 1.484375 -4.390625 1.5625 -4.359375 1.5625 -4.234375 C 1.5625 -4.1875 1.5625 -4.15625 1.546875 -4.09375 L 0.84375 -0.5 C 0.796875 -0.25 0.734375 -0.234375 0.4375 -0.203125 L 0.234375 -0.1875 C 0.1875 -0.1875 0.171875 -0.171875 0.171875 -0.140625 Z M 1.765625 -2.375 L 2.234375 -2.375 C 3.046875 -2.375 3.390625 -1.96875 3.390625 -1.4375 C 3.390625 -1.359375 3.375 -1.265625 3.359375 -1.171875 C 3.25 -0.65625 2.96875 -0.234375 1.921875 -0.234375 C 1.515625 -0.234375 1.40625 -0.296875 1.40625 -0.453125 C 1.40625 -0.484375 1.40625 -0.515625 1.40625 -0.5625 Z M 2.09375 -4.0625 C 2.140625 -4.3125 2.15625 -4.375 2.75 -4.375 C 3.09375 -4.375 3.5 -4.21875 3.5 -3.6875 C 3.5 -3.609375 3.484375 -3.53125 3.46875 -3.4375 C 3.34375 -2.828125 2.890625 -2.609375 2.328125 -2.609375 L 1.8125 -2.609375 Z M 2.09375 -4.0625 "/>
</g>
<g id="glyph-1-2">
<path d="M 1.921875 0.078125 C 2.578125 0.078125 3.265625 -0.25 3.84375 -0.890625 C 3.828125 -0.953125 3.796875 -1 3.71875 -1 C 3.125 -0.4375 2.609375 -0.21875 1.96875 -0.21875 C 1.109375 -0.21875 0.75 -0.953125 0.75 -1.78125 C 0.75 -1.984375 0.78125 -2.1875 0.8125 -2.390625 C 1.09375 -3.828125 2.1875 -4.4375 2.734375 -4.4375 C 3.671875 -4.4375 3.96875 -3.859375 4.015625 -3.234375 L 4.234375 -3.265625 C 4.234375 -3.640625 4.25 -3.984375 4.296875 -4.375 C 3.90625 -4.40625 3.703125 -4.703125 2.859375 -4.703125 C 1.71875 -4.703125 0.46875 -3.65625 0.1875 -2.25 C 0.15625 -2.078125 0.140625 -1.90625 0.140625 -1.71875 C 0.140625 -0.765625 0.671875 0.078125 1.921875 0.078125 Z M 1.921875 0.078125 "/>
</g>
<g id="glyph-2-0">
<path d="M 4.9375 -6.84375 L 6.078125 -6.703125 L 6.078125 -1.875 L 2.265625 -7.28125 L 0.484375 -7.28125 L 0.484375 -6.84375 L 1.34375 -6.765625 L 1.34375 -0.578125 L 0.421875 -0.453125 L 0.421875 0 L 3.0625 0 L 3.0625 -0.453125 L 1.90625 -0.59375 L 1.90625 -6.0625 L 6.25 0.078125 L 6.640625 0.078125 L 6.640625 -6.703125 L 7.5625 -6.84375 L 7.5625 -7.28125 L 4.9375 -7.28125 Z M 4.9375 -6.84375 "/>
</g>
<g id="glyph-2-1">
<path d="M 3.203125 -6.78125 C 4.515625 -6.78125 5.09375 -6.171875 5.09375 -5.109375 C 5.09375 -4.09375 4.5625 -3.375 3.25 -3.375 L 2.53125 -3.375 L 2.53125 -3.90625 C 2.53125 -4.875 2.53125 -5.84375 2.5625 -6.78125 Z M 0.484375 -6.84375 L 1.484375 -6.71875 C 1.5 -5.78125 1.5 -4.84375 1.5 -3.90625 L 1.5 -3.375 C 1.5 -2.421875 1.5 -1.484375 1.484375 -0.5625 L 0.484375 -0.453125 L 0.484375 0 L 3.5625 0 L 3.5625 -0.453125 L 2.5625 -0.5625 C 2.53125 -1.34375 2.53125 -2.09375 2.53125 -2.875 L 3.09375 -2.875 C 5.328125 -2.875 6.171875 -3.890625 6.171875 -5.109375 C 6.171875 -6.390625 5.234375 -7.28125 3.40625 -7.28125 L 0.484375 -7.28125 Z M 0.484375 -6.84375 "/>
</g>
<g id="glyph-3-0">
<path d="M 0.390625 -5.625 L 1.21875 -5.515625 C 1.234375 -4.75 1.234375 -3.984375 1.234375 -3.203125 L 1.234375 -2.765625 C 1.234375 -2 1.234375 -1.21875 1.21875 -0.46875 L 0.390625 -0.359375 L 0.390625 0 L 5.015625 0 L 5.078125 -1.59375 L 4.578125 -1.59375 L 4.375 -0.453125 L 2.09375 -0.453125 C 2.078125 -1.1875 2.078125 -1.953125 2.078125 -2.84375 L 3.40625 -2.84375 L 3.515625 -2 L 3.9375 -2 L 3.9375 -4.109375 L 3.515625 -4.109375 L 3.390625 -3.265625 L 2.078125 -3.265625 C 2.078125 -4 2.078125 -4.78125 2.09375 -5.546875 L 4.203125 -5.546875 L 4.390625 -4.40625 L 4.90625 -4.40625 L 4.84375 -5.984375 L 0.390625 -5.984375 Z M 0.390625 -5.625 "/>
</g>
<g id="glyph-3-1">
<path d="M 0.359375 0 L 2.4375 0 L 2.4375 -0.328125 L 1.8125 -0.453125 C 1.8125 -0.890625 1.796875 -1.484375 1.796875 -1.875 L 1.796875 -3.1875 C 2.234375 -3.5625 2.578125 -3.71875 2.984375 -3.71875 C 3.515625 -3.71875 3.71875 -3.453125 3.71875 -2.640625 L 3.71875 -1.875 C 3.71875 -1.46875 3.703125 -0.890625 3.703125 -0.453125 L 3.03125 -0.328125 L 3.03125 0 L 5.109375 0 L 5.109375 -0.328125 L 4.484375 -0.453125 C 4.484375 -0.890625 4.46875 -1.46875 4.46875 -1.875 L 4.46875 -2.703125 C 4.46875 -2.875 4.453125 -3.015625 4.453125 -3.15625 C 4.90625 -3.5625 5.265625 -3.71875 5.65625 -3.71875 C 6.171875 -3.71875 6.40625 -3.484375 6.40625 -2.65625 L 6.40625 -1.875 C 6.40625 -1.46875 6.390625 -0.890625 6.375 -0.453125 L 5.71875 -0.328125 L 5.71875 0 L 7.796875 0 L 7.796875 -0.328125 L 7.171875 -0.453125 C 7.15625 -0.890625 7.15625 -1.46875 7.15625 -1.875 L 7.15625 -2.796875 C 7.15625 -3.90625 6.734375 -4.359375 6 -4.359375 C 5.421875 -4.359375 4.84375 -4.078125 4.390625 -3.515625 C 4.234375 -4.109375 3.890625 -4.359375 3.328125 -4.359375 C 2.765625 -4.359375 2.1875 -4.015625 1.765625 -3.546875 L 1.6875 -4.265625 L 1.5625 -4.359375 L 0.296875 -3.8125 L 0.296875 -3.5 L 1.015625 -3.421875 C 1.03125 -3.0625 1.03125 -2.796875 1.03125 -2.3125 L 1.03125 -1.875 C 1.03125 -1.46875 1.03125 -0.890625 1.015625 -0.453125 L 0.359375 -0.328125 Z M 0.359375 0 "/>
</g>
<g id="glyph-3-2">
<path d="M 0.3125 0 L 2.390625 0 L 2.390625 -0.328125 L 1.765625 -0.453125 C 1.765625 -0.890625 1.75 -1.484375 1.75 -1.875 L 1.75 -3.0625 L 1.78125 -4.265625 L 1.640625 -4.359375 L 0.265625 -3.8125 L 0.265625 -3.5 L 0.96875 -3.421875 C 0.984375 -3.0625 0.984375 -2.78125 0.984375 -2.296875 L 0.984375 -1.875 C 0.984375 -1.46875 0.984375 -0.890625 0.96875 -0.453125 L 0.3125 -0.328125 Z M 1.328125 -5.265625 C 1.65625 -5.265625 1.921875 -5.5 1.921875 -5.84375 C 1.921875 -6.171875 1.65625 -6.40625 1.328125 -6.40625 C 0.984375 -6.40625 0.71875 -6.171875 0.71875 -5.84375 C 0.71875 -5.5 0.984375 -5.265625 1.328125 -5.265625 Z M 1.328125 -5.265625 "/>
</g>
<g id="glyph-3-3">
<path d="M 1.828125 0.109375 C 2.28125 0.109375 2.65625 -0.046875 2.890625 -0.359375 L 2.671875 -0.59375 C 2.453125 -0.421875 2.265625 -0.34375 2.078125 -0.34375 C 1.765625 -0.34375 1.578125 -0.546875 1.578125 -1 L 1.578125 -3.765625 L 2.796875 -3.765625 L 2.796875 -4.25 L 1.59375 -4.25 L 1.640625 -5.453125 L 1.109375 -5.453125 L 0.875 -4.265625 L 0.078125 -4.171875 L 0.078125 -3.765625 L 0.828125 -3.765625 L 0.828125 -1.65625 C 0.828125 -1.3125 0.8125 -1.125 0.8125 -0.90625 C 0.8125 -0.203125 1.203125 0.109375 1.828125 0.109375 Z M 1.828125 0.109375 "/>
</g>
<g id="glyph-3-4">
<path d="M 2.453125 -3.953125 C 3.015625 -3.953125 3.375 -3.609375 3.375 -2.984375 C 3.375 -2.71875 3.28125 -2.515625 2.796875 -2.515625 L 1.203125 -2.515625 C 1.3125 -3.5625 1.890625 -3.953125 2.453125 -3.953125 Z M 2.46875 0.109375 C 3.390625 0.109375 3.828125 -0.28125 4.1875 -0.890625 L 4 -1.046875 C 3.640625 -0.640625 3.234375 -0.46875 2.6875 -0.46875 C 1.765625 -0.46875 1.203125 -1.046875 1.1875 -2.140625 L 4.0625 -2.140625 C 4.09375 -2.265625 4.125 -2.4375 4.125 -2.640625 C 4.125 -3.734375 3.390625 -4.359375 2.453125 -4.359375 C 1.328125 -4.359375 0.40625 -3.453125 0.40625 -2.078125 C 0.40625 -0.703125 1.21875 0.109375 2.46875 0.109375 Z M 2.46875 0.109375 "/>
</g>
<g id="glyph-3-5">
<path d="M 0.375 0 L 2.546875 0 L 2.546875 -0.328125 L 1.8125 -0.453125 C 1.8125 -0.90625 1.796875 -1.484375 1.796875 -1.875 L 1.796875 -2.546875 C 1.953125 -3.0625 2.1875 -3.4375 2.53125 -3.703125 L 2.640625 -3.609375 C 2.8125 -3.453125 2.984375 -3.375 3.1875 -3.375 C 3.546875 -3.375 3.71875 -3.609375 3.71875 -4.03125 C 3.609375 -4.234375 3.34375 -4.359375 3.078125 -4.359375 C 2.59375 -4.359375 2.078125 -3.9375 1.78125 -3.21875 L 1.6875 -4.265625 L 1.5625 -4.359375 L 0.296875 -3.8125 L 0.296875 -3.5 L 1.015625 -3.421875 C 1.03125 -3.0625 1.03125 -2.796875 1.03125 -2.3125 L 1.03125 -1.875 C 1.03125 -1.46875 1.03125 -0.890625 1.015625 -0.4375 L 0.375 -0.328125 Z M 0.375 0 "/>
</g>
<g id="glyph-3-6">
<path d="M 2.578125 -2.890625 C 3.8125 -2.890625 4.34375 -2.46875 4.34375 -1.640625 C 4.34375 -0.84375 3.796875 -0.421875 2.640625 -0.421875 L 2.09375 -0.421875 C 2.078125 -1.1875 2.078125 -1.953125 2.078125 -2.890625 Z M 2.71875 -5.578125 C 3.625 -5.578125 4.09375 -5.28125 4.09375 -4.46875 C 4.09375 -3.65625 3.625 -3.296875 2.546875 -3.296875 L 2.078125 -3.296875 C 2.078125 -4 2.078125 -4.796875 2.09375 -5.578125 Z M 0.390625 -5.625 L 1.21875 -5.515625 C 1.234375 -4.75 1.234375 -3.984375 1.234375 -3.203125 L 1.234375 -2.765625 C 1.234375 -2 1.234375 -1.21875 1.21875 -0.46875 L 0.390625 -0.359375 L 0.390625 0 L 2.84375 0 C 4.5625 0 5.234375 -0.828125 5.234375 -1.640625 C 5.234375 -2.359375 4.734375 -2.9375 3.546875 -3.109375 C 4.546875 -3.3125 4.9375 -3.890625 4.9375 -4.53125 C 4.9375 -5.375 4.234375 -5.984375 2.984375 -5.984375 L 0.390625 -5.984375 Z M 0.390625 -5.625 "/>
</g>
<g id="glyph-3-7">
<path d="M 3.71875 0.09375 C 4.03125 0.09375 4.28125 -0.03125 4.5 -0.375 L 4.3125 -0.578125 C 4.21875 -0.453125 4.125 -0.375 3.96875 -0.375 C 3.765625 -0.375 3.640625 -0.515625 3.640625 -0.90625 L 3.640625 -2.8125 C 3.640625 -3.9375 3.203125 -4.359375 2.265625 -4.359375 C 1.34375 -4.359375 0.6875 -3.9375 0.515625 -3.25 C 0.546875 -3.015625 0.6875 -2.890625 0.9375 -2.890625 C 1.1875 -2.890625 1.328125 -3.03125 1.40625 -3.3125 L 1.578125 -3.890625 C 1.765625 -3.9375 1.921875 -3.953125 2.0625 -3.953125 C 2.640625 -3.953125 2.890625 -3.734375 2.890625 -2.875 L 2.890625 -2.625 C 2.5625 -2.515625 2.21875 -2.421875 1.890625 -2.328125 C 0.640625 -1.96875 0.40625 -1.515625 0.40625 -1 C 0.40625 -0.265625 0.953125 0.109375 1.59375 0.109375 C 2.125 0.109375 2.421875 -0.109375 2.90625 -0.59375 C 2.984375 -0.171875 3.28125 0.09375 3.71875 0.09375 Z M 1.203125 -1.125 C 1.203125 -1.40625 1.265625 -1.765625 2.078125 -2.015625 C 2.34375 -2.109375 2.625 -2.203125 2.890625 -2.28125 L 2.890625 -0.953125 C 2.359375 -0.546875 2.1875 -0.46875 1.90625 -0.46875 C 1.5 -0.46875 1.203125 -0.65625 1.203125 -1.125 Z M 1.203125 -1.125 "/>
</g>
<g id="glyph-3-8">
<path d="M 1.78125 0.109375 C 2.9375 0.109375 3.53125 -0.484375 3.53125 -1.15625 C 3.53125 -1.71875 3.1875 -2.140625 2.296875 -2.46875 L 2.015625 -2.578125 C 1.40625 -2.796875 1.203125 -2.953125 1.203125 -3.34375 C 1.203125 -3.703125 1.484375 -3.953125 2.03125 -3.953125 C 2.25 -3.953125 2.453125 -3.890625 2.640625 -3.796875 L 2.78125 -3.078125 L 3.25 -3.078125 L 3.28125 -4 C 2.90625 -4.234375 2.515625 -4.359375 2.03125 -4.359375 C 1.03125 -4.359375 0.484375 -3.75 0.484375 -3.09375 C 0.484375 -2.5 0.90625 -2.140625 1.5625 -1.890625 L 1.96875 -1.75 C 2.53125 -1.546875 2.8125 -1.34375 2.8125 -0.96875 C 2.8125 -0.5625 2.484375 -0.28125 1.8125 -0.28125 C 1.53125 -0.28125 1.296875 -0.328125 1.078125 -0.4375 L 0.90625 -1.203125 L 0.421875 -1.203125 L 0.453125 -0.21875 C 0.890625 0 1.28125 0.109375 1.78125 0.109375 Z M 1.78125 0.109375 "/>
</g>
<g id="glyph-3-9">
<path d="M 0.390625 -5.625 L 1.21875 -5.515625 C 1.234375 -4.75 1.234375 -3.984375 1.234375 -3.203125 L 1.234375 -2.765625 C 1.234375 -2 1.234375 -1.21875 1.21875 -0.46875 L 0.390625 -0.359375 L 0.390625 0 L 2.90625 0 L 2.90625 -0.359375 L 2.0625 -0.46875 C 2.046875 -1.015625 2.046875 -1.5625 2.046875 -2.046875 L 2.9375 -3.109375 L 4.359375 -0.453125 L 3.625 -0.359375 L 3.625 0 L 5.921875 0 L 5.921875 -0.359375 L 5.234375 -0.453125 L 3.421875 -3.703125 L 4.921875 -5.5 L 5.78125 -5.625 L 5.78125 -5.984375 L 3.734375 -5.984375 L 3.734375 -5.625 L 4.375 -5.5 L 2.046875 -2.640625 L 2.046875 -3.203125 C 2.046875 -3.984375 2.046875 -4.765625 2.0625 -5.515625 L 2.90625 -5.625 L 2.90625 -5.984375 L 0.390625 -5.984375 Z M 0.390625 -5.625 "/>
</g>
<g id="glyph-3-10">
<path d="M 2.453125 0.109375 C 3.484375 0.109375 4.5 -0.625 4.5 -2.09375 C 4.5 -3.578125 3.484375 -4.359375 2.453125 -4.359375 C 1.40625 -4.359375 0.40625 -3.578125 0.40625 -2.09375 C 0.40625 -0.625 1.40625 0.109375 2.453125 0.109375 Z M 2.453125 -0.28125 C 1.671875 -0.28125 1.25 -0.90625 1.25 -2.09375 C 1.25 -3.3125 1.671875 -3.953125 2.453125 -3.953125 C 3.21875 -3.953125 3.65625 -3.3125 3.65625 -2.09375 C 3.65625 -0.90625 3.21875 -0.28125 2.453125 -0.28125 Z M 2.453125 -0.28125 "/>
</g>
<g id="glyph-3-11">
<path d="M 0.21875 0 L 2.4375 0 L 2.4375 -0.328125 L 1.71875 -0.453125 C 1.71875 -0.921875 1.703125 -1.40625 1.703125 -1.875 L 1.703125 -5.265625 L 1.75 -6.546875 L 1.625 -6.609375 L 0.21875 -6.21875 L 0.21875 -5.890625 L 0.953125 -5.796875 L 0.953125 -1.875 C 0.953125 -1.40625 0.953125 -0.921875 0.9375 -0.453125 L 0.21875 -0.328125 Z M 0.21875 0 "/>
</g>
<g id="glyph-3-12">
<path d="M 0.21875 0 L 2.4375 0 L 2.4375 -0.328125 L 1.71875 -0.453125 C 1.71875 -0.828125 1.703125 -1.21875 1.703125 -1.609375 L 2.296875 -2.21875 L 3.671875 0 L 4.890625 0 L 4.890625 -0.328125 L 4.296875 -0.421875 L 2.828125 -2.765625 L 3.8125 -3.765625 L 4.65625 -3.890625 L 4.65625 -4.25 L 2.578125 -4.25 L 2.578125 -3.890625 L 3.234375 -3.734375 L 2.53125 -3.015625 L 1.703125 -2.140625 L 1.703125 -5.265625 L 1.75 -6.546875 L 1.625 -6.609375 L 0.21875 -6.21875 L 0.21875 -5.890625 L 0.953125 -5.796875 L 0.953125 -1.875 C 0.953125 -1.40625 0.953125 -0.921875 0.9375 -0.453125 L 0.21875 -0.328125 Z M 0.21875 0 "/>
</g>
<g id="glyph-3-13">
<path d="M 0.3125 2.140625 L 2.609375 2.140625 L 2.609375 1.828125 L 1.796875 1.6875 C 1.78125 1.203125 1.78125 0.71875 1.78125 0.234375 L 1.78125 -0.46875 C 2.15625 -0.03125 2.5625 0.109375 2.96875 0.109375 C 4.015625 0.109375 4.8125 -0.765625 4.8125 -2.140625 C 4.8125 -3.515625 4.0625 -4.359375 3.09375 -4.359375 C 2.625 -4.359375 2.1875 -4.140625 1.75 -3.6875 L 1.703125 -4.265625 L 1.5625 -4.359375 L 0.3125 -3.8125 L 0.3125 -3.5 L 1.015625 -3.421875 C 1.03125 -3.0625 1.046875 -2.796875 1.046875 -2.3125 L 1.046875 0.25 C 1.046875 0.71875 1.03125 1.21875 1.03125 1.703125 L 0.3125 1.828125 Z M 2.890625 -3.859375 C 3.546875 -3.859375 4 -3.203125 4 -2.0625 C 4 -0.90625 3.453125 -0.390625 2.78125 -0.390625 C 2.453125 -0.390625 2.140625 -0.53125 1.8125 -0.84375 L 1.8125 -3.359375 C 2.265625 -3.734375 2.609375 -3.859375 2.890625 -3.859375 Z M 2.890625 -3.859375 "/>
</g>
<g id="glyph-3-14">
<path d="M 0.265625 0 L 2.34375 0 L 2.34375 -0.328125 L 1.71875 -0.453125 C 1.71875 -0.890625 1.703125 -1.484375 1.703125 -1.875 L 1.703125 -3.140625 C 2.15625 -3.546875 2.53125 -3.71875 2.96875 -3.71875 C 3.5 -3.71875 3.703125 -3.453125 3.703125 -2.640625 L 3.703125 -1.875 C 3.703125 -1.46875 3.6875 -0.890625 3.6875 -0.4375 L 3.03125 -0.328125 L 3.03125 0 L 5.109375 0 L 5.109375 -0.328125 L 4.484375 -0.453125 C 4.46875 -0.890625 4.453125 -1.46875 4.453125 -1.875 L 4.453125 -2.703125 C 4.453125 -3.875 4.078125 -4.359375 3.3125 -4.359375 C 2.75 -4.359375 2.125 -4.015625 1.6875 -3.546875 L 1.6875 -5.265625 L 1.71875 -6.546875 L 1.59375 -6.609375 L 0.21875 -6.21875 L 0.21875 -5.890625 L 0.953125 -5.796875 L 0.953125 -1.875 C 0.953125 -1.484375 0.953125 -0.890625 0.9375 -0.453125 L 0.265625 -0.328125 Z M 0.265625 0 "/>
</g>
<g id="glyph-3-15">
<path d="M 2.828125 -3.921875 L 3.609375 -3.8125 L 3.078125 -2.359375 L 2.515625 -0.78125 L 1.390625 -3.828125 L 2.1875 -3.921875 L 2.1875 -4.25 L 0.03125 -4.25 L 0.03125 -3.921875 L 0.53125 -3.859375 L 2.140625 0.234375 L 2.109375 0.34375 C 1.9375 0.828125 1.6875 1.3125 1.3125 1.625 L 1.265625 1.578125 C 1.015625 1.328125 0.828125 1.25 0.59375 1.25 C 0.328125 1.25 0.0625 1.375 0 1.640625 C 0 1.984375 0.375 2.234375 0.828125 2.234375 C 1.5625 2.234375 2.0625 1.5625 2.65625 -0.03125 L 4.09375 -3.828125 L 4.578125 -3.921875 L 4.578125 -4.25 L 2.828125 -4.25 Z M 2.828125 -3.921875 "/>
</g>
<g id="glyph-3-16">
<path d="M 1.34375 0.109375 C 1.703125 0.109375 1.96875 -0.171875 1.96875 -0.515625 C 1.96875 -0.875 1.703125 -1.15625 1.34375 -1.15625 C 0.984375 -1.15625 0.703125 -0.875 0.703125 -0.515625 C 0.703125 -0.171875 0.984375 0.109375 1.34375 0.109375 Z M 1.34375 0.109375 "/>
</g>
<g id="glyph-3-17">
<path d="M 2.09375 0.140625 C 3.34375 0.140625 4.21875 -0.515625 4.21875 -1.5625 C 4.21875 -2.40625 3.765625 -2.9375 2.59375 -3.390625 L 2.234375 -3.515625 C 1.59375 -3.765625 1.21875 -4.109375 1.21875 -4.671875 C 1.21875 -5.328125 1.75 -5.671875 2.4375 -5.671875 C 2.703125 -5.671875 2.9375 -5.625 3.15625 -5.5 L 3.359375 -4.484375 L 3.890625 -4.484375 L 3.953125 -5.65625 C 3.5625 -5.9375 3.078125 -6.125 2.484375 -6.125 C 1.34375 -6.125 0.46875 -5.5 0.46875 -4.46875 C 0.46875 -3.5625 1.09375 -3.015625 2.015625 -2.65625 L 2.359375 -2.515625 C 3.125 -2.21875 3.453125 -1.96875 3.453125 -1.390625 C 3.453125 -0.703125 2.90625 -0.3125 2.078125 -0.3125 C 1.6875 -0.3125 1.421875 -0.390625 1.140625 -0.53125 L 0.96875 -1.59375 L 0.40625 -1.59375 L 0.359375 -0.34375 C 0.765625 -0.078125 1.4375 0.140625 2.09375 0.140625 Z M 2.09375 0.140625 "/>
</g>
<g id="glyph-3-18">
<path d="M 2.4375 0.109375 C 3.265625 0.109375 3.734375 -0.25 4.078125 -0.890625 L 3.890625 -1.046875 C 3.484375 -0.59375 3.078125 -0.46875 2.640625 -0.46875 C 1.828125 -0.46875 1.1875 -0.96875 1.1875 -2.15625 C 1.1875 -3.328125 1.75 -3.953125 2.5 -3.953125 C 2.640625 -3.953125 2.8125 -3.9375 2.984375 -3.875 L 3.140625 -3.28125 C 3.203125 -3.03125 3.328125 -2.859375 3.640625 -2.859375 C 3.859375 -2.859375 4 -2.96875 4.046875 -3.203125 C 3.9375 -3.859375 3.265625 -4.359375 2.46875 -4.359375 C 1.390625 -4.359375 0.40625 -3.515625 0.40625 -2.078125 C 0.40625 -0.703125 1.15625 0.109375 2.4375 0.109375 Z M 2.4375 0.109375 "/>
</g>
<g id="glyph-3-19">
<path d="M 2 0.109375 C 2.53125 0.109375 3.09375 -0.140625 3.578125 -0.71875 L 3.671875 0.078125 L 4.90625 0 L 4.90625 -0.328125 L 4.296875 -0.453125 L 4.296875 -3.0625 L 4.328125 -4.203125 L 4.234375 -4.296875 L 2.9375 -4.171875 L 2.9375 -3.859375 L 3.578125 -3.734375 L 3.546875 -1.09375 C 3.140625 -0.71875 2.703125 -0.515625 2.296875 -0.515625 C 1.8125 -0.515625 1.578125 -0.796875 1.578125 -1.578125 L 1.578125 -3.0625 L 1.625 -4.203125 L 1.53125 -4.296875 L 0.21875 -4.171875 L 0.21875 -3.859375 L 0.859375 -3.71875 L 0.828125 -1.5 C 0.828125 -0.3125 1.265625 0.109375 2 0.109375 Z M 2 0.109375 "/>
</g>
<g id="glyph-3-20">
<path d="M 0.359375 0 L 2.4375 0 L 2.4375 -0.328125 L 1.8125 -0.453125 C 1.8125 -0.890625 1.796875 -1.484375 1.796875 -1.875 L 1.796875 -3.1875 C 2.25 -3.5625 2.59375 -3.71875 3.015625 -3.71875 C 3.546875 -3.71875 3.75 -3.453125 3.75 -2.640625 L 3.75 -1.875 C 3.75 -1.46875 3.75 -0.890625 3.734375 -0.453125 L 3.078125 -0.328125 L 3.078125 0 L 5.140625 0 L 5.140625 -0.328125 L 4.515625 -0.453125 C 4.515625 -0.890625 4.5 -1.46875 4.5 -1.875 L 4.5 -2.703125 C 4.5 -3.875 4.125 -4.359375 3.359375 -4.359375 C 2.8125 -4.359375 2.203125 -4.03125 1.765625 -3.5625 L 1.6875 -4.265625 L 1.5625 -4.359375 L 0.296875 -3.8125 L 0.296875 -3.5 L 1.015625 -3.421875 C 1.03125 -3.0625 1.03125 -2.796875 1.03125 -2.3125 L 1.03125 -1.875 C 1.03125 -1.46875 1.03125 -0.890625 1.015625 -0.453125 L 0.359375 -0.328125 Z M 0.359375 0 "/>
</g>
<g id="glyph-3-21">
<path d="M 1.046875 0.90625 C 1.046875 0.609375 1.15625 0.390625 1.40625 0.109375 C 1.53125 0.109375 1.65625 0.125 1.765625 0.125 L 2.8125 0.125 C 3.453125 0.125 3.703125 0.421875 3.703125 0.828125 C 3.703125 1.328125 3.1875 1.71875 2.203125 1.71875 C 1.5 1.71875 1.046875 1.5 1.046875 0.90625 Z M 2.140625 -1.4375 C 3.0625 -1.4375 3.75 -1.953125 3.75 -2.890625 C 3.75 -3.21875 3.671875 -3.5 3.546875 -3.703125 L 4.421875 -3.703125 L 4.421875 -4.265625 L 4.296875 -4.359375 L 3.28125 -4 C 3 -4.234375 2.59375 -4.359375 2.140625 -4.359375 C 1.21875 -4.359375 0.53125 -3.828125 0.53125 -2.890625 C 0.53125 -2.28125 0.78125 -1.875 1.21875 -1.640625 C 0.765625 -1.21875 0.609375 -0.921875 0.609375 -0.65625 C 0.609375 -0.296875 0.8125 -0.078125 1.203125 0.046875 C 0.546875 0.359375 0.328125 0.671875 0.328125 1.046875 C 0.328125 1.6875 0.84375 2.140625 2.078125 2.140625 C 3.609375 2.140625 4.375 1.375 4.375 0.59375 C 4.375 -0.125 3.921875 -0.546875 2.9375 -0.546875 L 1.875 -0.546875 C 1.453125 -0.546875 1.25 -0.703125 1.25 -1.03125 C 1.25 -1.1875 1.328125 -1.328125 1.46875 -1.53125 C 1.671875 -1.46875 1.890625 -1.4375 2.140625 -1.4375 Z M 2.125 -1.78125 C 1.5625 -1.78125 1.25 -2.234375 1.25 -2.890625 C 1.25 -3.546875 1.59375 -4 2.15625 -4 C 2.703125 -4 3.03125 -3.5625 3.03125 -2.921875 C 3.03125 -2.265625 2.6875 -1.78125 2.125 -1.78125 Z M 2.125 -1.78125 "/>
</g>
<g id="glyph-3-22">
<path d="M 1.296875 0.109375 C 1.625 0.109375 1.875 -0.15625 1.875 -0.46875 C 1.875 -0.78125 1.625 -1.046875 1.296875 -1.046875 C 0.96875 -1.046875 0.71875 -0.78125 0.71875 -0.46875 C 0.71875 -0.15625 0.96875 0.109375 1.296875 0.109375 Z M 1.296875 -6.125 C 0.96875 -6.125 0.78125 -5.953125 0.78125 -5.5625 C 0.78125 -5.234375 0.875 -4.390625 1.015625 -3.140625 L 1.125 -1.921875 L 1.453125 -1.921875 L 1.578125 -3.140625 C 1.703125 -4.390625 1.8125 -5.234375 1.8125 -5.5625 C 1.8125 -5.953125 1.609375 -6.125 1.296875 -6.125 Z M 1.296875 -6.125 "/>
</g>
</g>
<clipPath id="clip-0">
<path clip-rule="nonzero" d="M 110.46875 62.46875 L 145.160156 62.46875 L 145.160156 131.851562 L 110.46875 131.851562 Z M 110.46875 62.46875 "/>
</clipPath>
<linearGradient id="linear-pattern-0" gradientUnits="userSpaceOnUse" x1="0" y1="25.002965" x2="0" y2="74.997035" gradientTransform="matrix(0.693928, 0, 0, -1.387846, 93.117567, 166.551353)">
<stop offset="0" stop-color="rgb(94.114685%, 65.687561%, 56.863403%)" stop-opacity="1"/>
<stop offset="0.0078125" stop-color="rgb(93.942261%, 65.748596%, 57.00531%)" stop-opacity="1"/>
<stop offset="0.015625" stop-color="rgb(93.597412%, 65.872192%, 57.287598%)" stop-opacity="1"/>
<stop offset="0.0234375" stop-color="rgb(93.252563%, 65.994263%, 57.571411%)" stop-opacity="1"/>
<stop offset="0.03125" stop-color="rgb(92.909241%, 66.116333%, 57.855225%)" stop-opacity="1"/>
<stop offset="0.0390625" stop-color="rgb(92.564392%, 66.238403%, 58.137512%)" stop-opacity="1"/>
<stop offset="0.046875" stop-color="rgb(92.219543%, 66.362%, 58.421326%)" stop-opacity="1"/>
<stop offset="0.0546875" stop-color="rgb(91.874695%, 66.48407%, 58.705139%)" stop-opacity="1"/>
<stop offset="0.0625" stop-color="rgb(91.529846%, 66.60614%, 58.988953%)" stop-opacity="1"/>
<stop offset="0.0703125" stop-color="rgb(91.184998%, 66.729736%, 59.27124%)" stop-opacity="1"/>
<stop offset="0.078125" stop-color="rgb(90.841675%, 66.851807%, 59.555054%)" stop-opacity="1"/>
<stop offset="0.0859375" stop-color="rgb(90.496826%, 66.973877%, 59.838867%)" stop-opacity="1"/>
<stop offset="0.09375" stop-color="rgb(90.151978%, 67.095947%, 60.121155%)" stop-opacity="1"/>
<stop offset="0.101562" stop-color="rgb(89.807129%, 67.219543%, 60.404968%)" stop-opacity="1"/>
<stop offset="0.109375" stop-color="rgb(89.46228%, 67.341614%, 60.688782%)" stop-opacity="1"/>
<stop offset="0.117187" stop-color="rgb(89.117432%, 67.463684%, 60.971069%)" stop-opacity="1"/>
<stop offset="0.125" stop-color="rgb(88.772583%, 67.58728%, 61.254883%)" stop-opacity="1"/>
<stop offset="0.132812" stop-color="rgb(88.42926%, 67.709351%, 61.538696%)" stop-opacity="1"/>
<stop offset="0.140625" stop-color="rgb(88.084412%, 67.831421%, 61.82251%)" stop-opacity="1"/>
<stop offset="0.148437" stop-color="rgb(87.739563%, 67.953491%, 62.104797%)" stop-opacity="1"/>
<stop offset="0.15625" stop-color="rgb(87.394714%, 68.077087%, 62.388611%)" stop-opacity="1"/>
<stop offset="0.164062" stop-color="rgb(87.049866%, 68.199158%, 62.672424%)" stop-opacity="1"/>
<stop offset="0.171875" stop-color="rgb(86.705017%, 68.321228%, 62.954712%)" stop-opacity="1"/>
<stop offset="0.179687" stop-color="rgb(86.361694%, 68.444824%, 63.238525%)" stop-opacity="1"/>
<stop offset="0.1875" stop-color="rgb(86.016846%, 68.566895%, 63.522339%)" stop-opacity="1"/>
<stop offset="0.195312" stop-color="rgb(85.671997%, 68.688965%, 63.806152%)" stop-opacity="1"/>
<stop offset="0.203125" stop-color="rgb(85.327148%, 68.811035%, 64.08844%)" stop-opacity="1"/>
<stop offset="0.210937" stop-color="rgb(84.9823%, 68.934631%, 64.372253%)" stop-opacity="1"/>
<stop offset="0.21875" stop-color="rgb(84.637451%, 69.056702%, 64.656067%)" stop-opacity="1"/>
<stop offset="0.226562" stop-color="rgb(84.294128%, 69.178772%, 64.938354%)" stop-opacity="1"/>
<stop offset="0.234375" stop-color="rgb(83.94928%, 69.300842%, 65.222168%)" stop-opacity="1"/>
<stop offset="0.242187" stop-color="rgb(83.604431%, 69.424438%, 65.505981%)" stop-opacity="1"/>
<stop offset="0.25" stop-color="rgb(83.259583%, 69.546509%, 65.789795%)" stop-opacity="1"/>
<stop offset="0.257812" stop-color="rgb(82.914734%, 69.668579%, 66.072083%)" stop-opacity="1"/>
<stop offset="0.265625" stop-color="rgb(82.569885%, 69.792175%, 66.355896%)" stop-opacity="1"/>
<stop offset="0.273437" stop-color="rgb(82.225037%, 69.914246%, 66.639709%)" stop-opacity="1"/>
<stop offset="0.28125" stop-color="rgb(81.881714%, 70.036316%, 66.921997%)" stop-opacity="1"/>
<stop offset="0.289062" stop-color="rgb(81.536865%, 70.158386%, 67.205811%)" stop-opacity="1"/>
<stop offset="0.296875" stop-color="rgb(81.192017%, 70.281982%, 67.489624%)" stop-opacity="1"/>
<stop offset="0.304687" stop-color="rgb(80.847168%, 70.404053%, 67.771912%)" stop-opacity="1"/>
<stop offset="0.3125" stop-color="rgb(80.502319%, 70.526123%, 68.055725%)" stop-opacity="1"/>
<stop offset="0.320312" stop-color="rgb(80.157471%, 70.649719%, 68.339539%)" stop-opacity="1"/>
<stop offset="0.328125" stop-color="rgb(79.814148%, 70.77179%, 68.623352%)" stop-opacity="1"/>
<stop offset="0.335937" stop-color="rgb(79.469299%, 70.89386%, 68.90564%)" stop-opacity="1"/>
<stop offset="0.34375" stop-color="rgb(79.124451%, 71.01593%, 69.189453%)" stop-opacity="1"/>
<stop offset="0.351562" stop-color="rgb(78.779602%, 71.139526%, 69.473267%)" stop-opacity="1"/>
<stop offset="0.359375" stop-color="rgb(78.434753%, 71.261597%, 69.755554%)" stop-opacity="1"/>
<stop offset="0.367187" stop-color="rgb(78.089905%, 71.383667%, 70.039368%)" stop-opacity="1"/>
<stop offset="0.375" stop-color="rgb(77.745056%, 71.507263%, 70.323181%)" stop-opacity="1"/>
<stop offset="0.382812" stop-color="rgb(77.401733%, 71.629333%, 70.606995%)" stop-opacity="1"/>
<stop offset="0.390625" stop-color="rgb(77.056885%, 71.751404%, 70.889282%)" stop-opacity="1"/>
<stop offset="0.398437" stop-color="rgb(76.712036%, 71.873474%, 71.173096%)" stop-opacity="1"/>
<stop offset="0.40625" stop-color="rgb(76.367188%, 71.99707%, 71.456909%)" stop-opacity="1"/>
<stop offset="0.414062" stop-color="rgb(76.022339%, 72.119141%, 71.739197%)" stop-opacity="1"/>
<stop offset="0.421875" stop-color="rgb(75.67749%, 72.241211%, 72.02301%)" stop-opacity="1"/>
<stop offset="0.429687" stop-color="rgb(75.334167%, 72.364807%, 72.306824%)" stop-opacity="1"/>
<stop offset="0.4375" stop-color="rgb(74.989319%, 72.486877%, 72.590637%)" stop-opacity="1"/>
<stop offset="0.445312" stop-color="rgb(74.64447%, 72.608948%, 72.872925%)" stop-opacity="1"/>
<stop offset="0.453125" stop-color="rgb(74.299622%, 72.731018%, 73.156738%)" stop-opacity="1"/>
<stop offset="0.460937" stop-color="rgb(73.954773%, 72.854614%, 73.440552%)" stop-opacity="1"/>
<stop offset="0.46875" stop-color="rgb(73.609924%, 72.976685%, 73.722839%)" stop-opacity="1"/>
<stop offset="0.476562" stop-color="rgb(73.265076%, 73.098755%, 74.006653%)" stop-opacity="1"/>
<stop offset="0.484375" stop-color="rgb(72.921753%, 73.220825%, 74.290466%)" stop-opacity="1"/>
<stop offset="0.492188" stop-color="rgb(72.576904%, 73.344421%, 74.572754%)" stop-opacity="1"/>
<stop offset="0.5" stop-color="rgb(72.232056%, 73.466492%, 74.856567%)" stop-opacity="1"/>
<stop offset="0.507812" stop-color="rgb(71.887207%, 73.588562%, 75.140381%)" stop-opacity="1"/>
<stop offset="0.515625" stop-color="rgb(71.542358%, 73.712158%, 75.424194%)" stop-opacity="1"/>
<stop offset="0.523438" stop-color="rgb(71.19751%, 73.834229%, 75.706482%)" stop-opacity="1"/>
<stop offset="0.53125" stop-color="rgb(70.854187%, 73.956299%, 75.990295%)" stop-opacity="1"/>
<stop offset="0.539063" stop-color="rgb(70.509338%, 74.079895%, 76.274109%)" stop-opacity="1"/>
<stop offset="0.546875" stop-color="rgb(70.16449%, 74.201965%, 76.556396%)" stop-opacity="1"/>
<stop offset="0.554688" stop-color="rgb(69.819641%, 74.324036%, 76.84021%)" stop-opacity="1"/>
<stop offset="0.5625" stop-color="rgb(69.474792%, 74.446106%, 77.124023%)" stop-opacity="1"/>
<stop offset="0.570313" stop-color="rgb(69.129944%, 74.569702%, 77.407837%)" stop-opacity="1"/>
<stop offset="0.578125" stop-color="rgb(68.785095%, 74.691772%, 77.690125%)" stop-opacity="1"/>
<stop offset="0.585938" stop-color="rgb(68.440247%, 74.813843%, 77.973938%)" stop-opacity="1"/>
<stop offset="0.59375" stop-color="rgb(68.096924%, 74.937439%, 78.257751%)" stop-opacity="1"/>
<stop offset="0.601563" stop-color="rgb(67.752075%, 75.059509%, 78.540039%)" stop-opacity="1"/>
<stop offset="0.609375" stop-color="rgb(67.407227%, 75.18158%, 78.823853%)" stop-opacity="1"/>
<stop offset="0.617188" stop-color="rgb(67.062378%, 75.305176%, 79.107666%)" stop-opacity="1"/>
<stop offset="0.625" stop-color="rgb(66.717529%, 75.427246%, 79.391479%)" stop-opacity="1"/>
<stop offset="0.632813" stop-color="rgb(66.372681%, 75.549316%, 79.673767%)" stop-opacity="1"/>
<stop offset="0.640625" stop-color="rgb(66.027832%, 75.671387%, 79.957581%)" stop-opacity="1"/>
<stop offset="0.648438" stop-color="rgb(65.684509%, 75.794983%, 80.241394%)" stop-opacity="1"/>
<stop offset="0.65625" stop-color="rgb(65.339661%, 75.917053%, 80.523682%)" stop-opacity="1"/>
<stop offset="0.664063" stop-color="rgb(64.994812%, 76.039124%, 80.807495%)" stop-opacity="1"/>
<stop offset="0.671875" stop-color="rgb(64.649963%, 76.16272%, 81.091309%)" stop-opacity="1"/>
<stop offset="0.679688" stop-color="rgb(64.305115%, 76.28479%, 81.373596%)" stop-opacity="1"/>
<stop offset="0.6875" stop-color="rgb(63.960266%, 76.40686%, 81.65741%)" stop-opacity="1"/>
<stop offset="0.695313" stop-color="rgb(63.615417%, 76.530457%, 81.941223%)" stop-opacity="1"/>
<stop offset="0.703125" stop-color="rgb(63.270569%, 76.652527%, 82.225037%)" stop-opacity="1"/>
<stop offset="0.710938" stop-color="rgb(62.927246%, 76.774597%, 82.507324%)" stop-opacity="1"/>
<stop offset="0.71875" stop-color="rgb(62.582397%, 76.896667%, 82.791138%)" stop-opacity="1"/>
<stop offset="0.726563" stop-color="rgb(62.237549%, 77.020264%, 83.074951%)" stop-opacity="1"/>
<stop offset="0.734375" stop-color="rgb(61.8927%, 77.142334%, 83.357239%)" stop-opacity="1"/>
<stop offset="0.742188" stop-color="rgb(61.547852%, 77.264404%, 83.641052%)" stop-opacity="1"/>
<stop offset="0.75" stop-color="rgb(61.203003%, 77.388%, 83.924866%)" stop-opacity="1"/>
<stop offset="0.757813" stop-color="rgb(60.858154%, 77.510071%, 84.208679%)" stop-opacity="1"/>
<stop offset="0.765625" stop-color="rgb(60.514832%, 77.632141%, 84.490967%)" stop-opacity="1"/>
<stop offset="0.773437" stop-color="rgb(60.169983%, 77.755737%, 84.77478%)" stop-opacity="1"/>
<stop offset="0.78125" stop-color="rgb(59.825134%, 77.877808%, 85.058594%)" stop-opacity="1"/>
<stop offset="0.789063" stop-color="rgb(59.480286%, 77.999878%, 85.340881%)" stop-opacity="1"/>
<stop offset="0.796875" stop-color="rgb(59.135437%, 78.121948%, 85.624695%)" stop-opacity="1"/>
<stop offset="0.804687" stop-color="rgb(58.790588%, 78.245544%, 85.908508%)" stop-opacity="1"/>
<stop offset="0.8125" stop-color="rgb(58.44574%, 78.367615%, 86.192322%)" stop-opacity="1"/>
<stop offset="0.820313" stop-color="rgb(58.102417%, 78.489685%, 86.474609%)" stop-opacity="1"/>
<stop offset="0.828125" stop-color="rgb(57.757568%, 78.613281%, 86.758423%)" stop-opacity="1"/>
<stop offset="0.835937" stop-color="rgb(57.41272%, 78.735352%, 87.042236%)" stop-opacity="1"/>
<stop offset="0.84375" stop-color="rgb(57.067871%, 78.857422%, 87.324524%)" stop-opacity="1"/>
<stop offset="0.851563" stop-color="rgb(56.723022%, 78.981018%, 87.608337%)" stop-opacity="1"/>
<stop offset="0.859375" stop-color="rgb(56.378174%, 79.103088%, 87.892151%)" stop-opacity="1"/>
<stop offset="0.867187" stop-color="rgb(56.033325%, 79.225159%, 88.175964%)" stop-opacity="1"/>
<stop offset="0.875" stop-color="rgb(55.688477%, 79.348755%, 88.458252%)" stop-opacity="1"/>
<stop offset="0.882813" stop-color="rgb(55.345154%, 79.470825%, 88.742065%)" stop-opacity="1"/>
<stop offset="0.890625" stop-color="rgb(55.000305%, 79.592896%, 89.025879%)" stop-opacity="1"/>
<stop offset="0.898437" stop-color="rgb(54.655457%, 79.714966%, 89.308167%)" stop-opacity="1"/>
<stop offset="0.90625" stop-color="rgb(54.310608%, 79.838562%, 89.59198%)" stop-opacity="1"/>
<stop offset="0.914063" stop-color="rgb(53.965759%, 79.960632%, 89.875793%)" stop-opacity="1"/>
<stop offset="0.921875" stop-color="rgb(53.620911%, 80.082703%, 90.158081%)" stop-opacity="1"/>
<stop offset="0.929687" stop-color="rgb(53.276062%, 80.206299%, 90.441895%)" stop-opacity="1"/>
<stop offset="0.9375" stop-color="rgb(52.932739%, 80.328369%, 90.725708%)" stop-opacity="1"/>
<stop offset="0.945313" stop-color="rgb(52.587891%, 80.450439%, 91.009521%)" stop-opacity="1"/>
<stop offset="0.953125" stop-color="rgb(52.243042%, 80.574036%, 91.291809%)" stop-opacity="1"/>
<stop offset="0.960937" stop-color="rgb(51.898193%, 80.696106%, 91.575623%)" stop-opacity="1"/>
<stop offset="0.96875" stop-color="rgb(51.553345%, 80.818176%, 91.859436%)" stop-opacity="1"/>
<stop offset="0.976563" stop-color="rgb(51.208496%, 80.940247%, 92.141724%)" stop-opacity="1"/>
<stop offset="0.984375" stop-color="rgb(50.863647%, 81.063843%, 92.425537%)" stop-opacity="1"/>
<stop offset="0.992187" stop-color="rgb(50.518799%, 81.185913%, 92.709351%)" stop-opacity="1"/>
<stop offset="1" stop-color="rgb(50.175476%, 81.307983%, 92.993164%)" stop-opacity="1"/>
</linearGradient>
<clipPath id="clip-1">
<path clip-rule="nonzero" d="M 214 96 L 249.429688 96 L 249.429688 98 L 214 98 Z M 214 96 "/>
</clipPath>
<clipPath id="clip-2">
<path clip-rule="nonzero" d="M 0.0625 89 L 14 89 L 14 105 L 0.0625 105 Z M 0.0625 89 "/>
</clipPath>
<clipPath id="clip-3">
<path clip-rule="nonzero" d="M 0.0625 55 L 14 55 L 14 71 L 0.0625 71 Z M 0.0625 55 "/>
</clipPath>
<clipPath id="clip-4">
<path clip-rule="nonzero" d="M 6 96 L 249.429688 96 L 249.429688 202 L 6 202 Z M 6 96 "/>
</clipPath>
<clipPath id="clip-5">
<path clip-rule="nonzero" d="M 0.0625 194 L 14 194 L 14 209 L 0.0625 209 Z M 0.0625 194 "/>
</clipPath>
<clipPath id="clip-6">
<path clip-rule="nonzero" d="M 0.0625 210 L 13 210 L 13 212 L 0.0625 212 Z M 0.0625 210 "/>
</clipPath>
<clipPath id="clip-7">
<path clip-rule="nonzero" d="M 55 189 L 79 189 L 79 213.496094 L 55 213.496094 Z M 55 189 "/>
</clipPath>
<clipPath id="clip-8">
<path clip-rule="nonzero" d="M 44 178 L 91 178 L 91 213.496094 L 44 213.496094 Z M 44 178 "/>
</clipPath>
<clipPath id="clip-9">
<path clip-rule="nonzero" d="M 47 181 L 87 181 L 87 213.496094 L 47 213.496094 Z M 47 181 "/>
</clipPath>
<clipPath id="clip-10">
<path clip-rule="nonzero" d="M 190 188 L 191 188 L 191 213.496094 L 190 213.496094 Z M 190 188 "/>
</clipPath>
</defs>
<path fill="none" stroke-width="0.3985" stroke-linecap="butt" stroke-linejoin="miter" stroke="rgb(0%, 0%, 0%)" stroke-opacity="1" stroke-miterlimit="10" d="M -0.00123209 -0.00109383 L 17.407476 -0.00109383 M 17.407476 -0.00109383 L 34.812264 -0.00109383 " transform="matrix(0.996493, 0, 0, -0.996493, 6.391853, 97.159066)"/>
<path fill-rule="nonzero" fill="rgb(0%, 0%, 0%)" fill-opacity="1" stroke-width="0.3985" stroke-linecap="butt" stroke-linejoin="miter" stroke="rgb(0%, 0%, 0%)" stroke-opacity="1" stroke-miterlimit="10" d="M 15.670917 -0.00109383 L 15.670917 -1.984612 L 19.888834 -0.00109383 L 15.670917 1.982425 Z M 15.670917 -0.00109383 " transform="matrix(0.996493, 0, 0, -0.996493, 6.391853, 97.159066)"/>
<g fill="rgb(0%, 0%, 0%)" fill-opacity="1">
<use xlink:href="#glyph-0-0" x="20.210222" y="92.091899"/>
</g>
<g fill="rgb(0%, 0%, 0%)" fill-opacity="1">
<use xlink:href="#glyph-1-0" x="22.721384" y="93.968296"/>
</g>
<path fill-rule="nonzero" fill="rgb(50%, 81.370544%, 93.136597%)" fill-opacity="1" stroke-width="0.3985" stroke-linecap="butt" stroke-linejoin="miter" stroke="rgb(0%, 0%, 0%)" stroke-opacity="1" stroke-miterlimit="10" d="M 34.812264 -34.81459 L 34.812264 34.812403 L 104.443177 34.812403 L 104.443177 -34.81459 Z M 34.812264 -34.81459 " transform="matrix(0.996493, 0, 0, -0.996493, 6.391853, 97.159066)"/>
<path fill-rule="nonzero" fill="rgb(0%, 0%, 0%)" fill-opacity="1" d="M 110.46875 131.851562 L 110.46875 62.46875 L 145.160156 62.46875 L 145.160156 131.851562 Z M 110.46875 131.851562 "/>
<g clip-path="url(#clip-0)">
<path fill-rule="nonzero" fill="url(#linear-pattern-0)" d="M 110.46875 131.851562 L 110.46875 62.46875 L 145.160156 62.46875 L 145.160156 131.851562 Z M 110.46875 131.851562 "/>
</g>
<path fill="none" stroke-width="0.3985" stroke-linecap="butt" stroke-linejoin="miter" stroke="rgb(0%, 0%, 0%)" stroke-opacity="1" stroke-miterlimit="10" d="M 104.443177 -34.81459 L 104.443177 34.812403 L 139.256673 34.812403 L 139.256673 -34.81459 Z M 104.443177 -34.81459 " transform="matrix(0.996493, 0, 0, -0.996493, 6.391853, 97.159066)"/>
<path fill-rule="nonzero" fill="rgb(69.999695%, 88.822937%, 95.881653%)" fill-opacity="1" stroke-width="0.3985" stroke-linecap="butt" stroke-linejoin="miter" stroke="rgb(0%, 0%, 0%)" stroke-opacity="1" stroke-miterlimit="10" d="M 139.256673 -34.81459 L 139.256673 34.812403 L 208.883666 34.812403 L 208.883666 -34.81459 Z M 139.256673 -34.81459 " transform="matrix(0.996493, 0, 0, -0.996493, 6.391853, 97.159066)"/>
<g clip-path="url(#clip-1)">
<path fill="none" stroke-width="0.3985" stroke-linecap="butt" stroke-linejoin="miter" stroke="rgb(0%, 0%, 0%)" stroke-opacity="1" stroke-miterlimit="10" d="M 208.883666 -0.00109383 L 243.697163 -0.00109383 " transform="matrix(0.996493, 0, 0, -0.996493, 6.391853, 97.159066)"/>
</g>
<g fill="rgb(0%, 0%, 0%)" fill-opacity="1">
<use xlink:href="#glyph-2-0" x="71.780728" y="100.762385"/>
</g>
<g fill="rgb(0%, 0%, 0%)" fill-opacity="1">
<use xlink:href="#glyph-2-1" x="124.610803" y="100.800252"/>
</g>
<g fill="rgb(0%, 0%, 0%)" fill-opacity="1">
<use xlink:href="#glyph-2-0" x="175.855456" y="100.762385"/>
</g>
<g fill="rgb(0%, 0%, 0%)" fill-opacity="1">
<use xlink:href="#glyph-3-0" x="60.613031" y="143.668385"/>
<use xlink:href="#glyph-3-1" x="66.000797" y="143.668385"/>
<use xlink:href="#glyph-3-2" x="74.051174" y="143.668385"/>
<use xlink:href="#glyph-3-3" x="76.713784" y="143.668385"/>
</g>
<g fill="rgb(0%, 0%, 0%)" fill-opacity="1">
<use xlink:href="#glyph-3-3" x="79.698053" y="143.668385"/>
<use xlink:href="#glyph-3-4" x="82.601906" y="143.668385"/>
<use xlink:href="#glyph-3-5" x="87.158723" y="143.668385"/>
</g>
<g fill="rgb(0%, 0%, 0%)" fill-opacity="1">
<use xlink:href="#glyph-3-6" x="117.519758" y="143.668385"/>
<use xlink:href="#glyph-3-7" x="123.139832" y="143.668385"/>
<use xlink:href="#glyph-3-8" x="127.687714" y="143.668385"/>
<use xlink:href="#glyph-3-2" x="131.565476" y="143.668385"/>
<use xlink:href="#glyph-3-8" x="134.228087" y="143.668385"/>
</g>
<g fill="rgb(0%, 0%, 0%)" fill-opacity="1">
<use xlink:href="#glyph-3-9" x="161.417269" y="143.771024"/>
</g>
<g fill="rgb(0%, 0%, 0%)" fill-opacity="1">
<use xlink:href="#glyph-3-10" x="167.198172" y="143.771024"/>
</g>
<g fill="rgb(0%, 0%, 0%)" fill-opacity="1">
<use xlink:href="#glyph-3-11" x="172.014102" y="143.771024"/>
<use xlink:href="#glyph-3-11" x="174.676713" y="143.771024"/>
<use xlink:href="#glyph-3-4" x="177.339323" y="143.771024"/>
</g>
<g fill="rgb(0%, 0%, 0%)" fill-opacity="1">
<use xlink:href="#glyph-3-12" x="181.806791" y="143.771024"/>
<use xlink:href="#glyph-3-3" x="186.6942" y="143.771024"/>
<use xlink:href="#glyph-3-10" x="189.598054" y="143.771024"/>
<use xlink:href="#glyph-3-5" x="194.503334" y="143.771024"/>
</g>
<g fill="rgb(0%, 62.745667%, 86.274719%)" fill-opacity="1">
<use xlink:href="#glyph-3-13" x="154.863334" y="29.964545"/>
</g>
<g fill="rgb(0%, 62.745667%, 86.274719%)" fill-opacity="1">
<use xlink:href="#glyph-3-14" x="159.983052" y="29.964545"/>
</g>
<g fill="rgb(0%, 62.745667%, 86.274719%)" fill-opacity="1">
<use xlink:href="#glyph-3-15" x="165.0849" y="29.964545"/>
</g>
<g fill="rgb(0%, 62.745667%, 86.274719%)" fill-opacity="1">
<use xlink:href="#glyph-3-8" x="169.570237" y="29.964545"/>
</g>
<g fill="rgb(0%, 62.745667%, 86.274719%)" fill-opacity="1">
<use xlink:href="#glyph-3-16" x="173.269301" y="29.964545"/>
</g>
<g fill="rgb(0%, 62.745667%, 86.274719%)" fill-opacity="1">
<use xlink:href="#glyph-3-17" x="178.719611" y="29.964545"/>
</g>
<g fill="rgb(0%, 62.745667%, 86.274719%)" fill-opacity="1">
<use xlink:href="#glyph-3-3" x="183.213883" y="29.964545"/>
<use xlink:href="#glyph-3-5" x="186.117737" y="29.964545"/>
</g>
<g fill="rgb(0%, 62.745667%, 86.274719%)" fill-opacity="1">
<use xlink:href="#glyph-3-10" x="189.807866" y="29.964545"/>
<use xlink:href="#glyph-3-1" x="194.713145" y="29.964545"/>
<use xlink:href="#glyph-3-5" x="202.763521" y="29.964545"/>
<use xlink:href="#glyph-3-2" x="206.542999" y="29.964545"/>
<use xlink:href="#glyph-3-18" x="209.20561" y="29.964545"/>
</g>
<g fill="rgb(0%, 62.745667%, 86.274719%)" fill-opacity="1">
<use xlink:href="#glyph-3-14" x="213.467574" y="29.964545"/>
</g>
<g fill="rgb(0%, 62.745667%, 86.274719%)" fill-opacity="1">
<use xlink:href="#glyph-3-3" x="218.792795" y="29.964545"/>
<use xlink:href="#glyph-3-19" x="221.696649" y="29.964545"/>
<use xlink:href="#glyph-3-20" x="226.905716" y="29.964545"/>
<use xlink:href="#glyph-3-21" x="232.320287" y="29.964545"/>
<use xlink:href="#glyph-3-22" x="236.948583" y="29.964545"/>
</g>
<path fill="none" stroke-width="0.3985" stroke-linecap="butt" stroke-linejoin="miter" stroke="rgb(0%, 0%, 0%)" stroke-opacity="1" stroke-miterlimit="10" d="M -0.00123209 -0.00109383 L -0.00123209 34.812403 M -0.00123209 34.812403 L -0.00123209 69.629819 L 24.510511 69.629819 M 38.320662 83.24005 L 22.605393 83.24005 M 36.415543 69.629819 L 76.505356 69.629819 M 106.269896 69.629819 L 121.847965 69.629819 L 121.847965 52.221111 M 121.847965 52.221111 L 121.847965 34.812403 " transform="matrix(0.996493, 0, 0, -0.996493, 6.391853, 97.159066)"/>
<path fill-rule="nonzero" fill="rgb(0%, 0%, 0%)" fill-opacity="1" d="M 7.972656 97.160156 C 7.972656 96.285156 7.265625 95.578125 6.390625 95.578125 C 5.519531 95.578125 4.808594 96.285156 4.808594 97.160156 C 4.808594 98.03125 5.519531 98.742188 6.390625 98.742188 C 7.265625 98.742188 7.972656 98.03125 7.972656 97.160156 Z M 7.972656 97.160156 "/>
<g clip-path="url(#clip-2)">
<path fill="none" stroke-width="0.3985" stroke-linecap="butt" stroke-linejoin="miter" stroke="rgb(0%, 0%, 0%)" stroke-opacity="1" stroke-miterlimit="10" d="M 1.586367 -0.00109383 C 1.586367 0.876986 0.876847 1.586505 -0.00123209 1.586505 C -0.875391 1.586505 -1.588831 0.876986 -1.588831 -0.00109383 C -1.588831 -0.875253 -0.875391 -1.588693 -0.00123209 -1.588693 C 0.876847 -1.588693 1.586367 -0.875253 1.586367 -0.00109383 Z M 1.586367 -0.00109383 " transform="matrix(0.996493, 0, 0, -0.996493, 6.391853, 97.159066)"/>
</g>
<path fill-rule="nonzero" fill="rgb(0%, 0%, 0%)" fill-opacity="1" d="M 6.390625 60.738281 L 4.414062 60.738281 L 6.390625 64.9375 L 8.371094 60.738281 Z M 6.390625 60.738281 "/>
<g clip-path="url(#clip-3)">
<path fill="none" stroke-width="0.3985" stroke-linecap="butt" stroke-linejoin="miter" stroke="rgb(0%, 0%, 0%)" stroke-opacity="1" stroke-miterlimit="10" d="M -0.00123209 36.548961 L -1.984751 36.548961 L -0.00123209 32.334964 L 1.986207 36.548961 Z M -0.00123209 36.548961 " transform="matrix(0.996493, 0, 0, -0.996493, 6.391853, 97.159066)"/>
</g>
<g fill="rgb(0%, 0%, 0%)" fill-opacity="1">
<use xlink:href="#glyph-0-0" x="9.568673" y="64.412313"/>
</g>
<g fill="rgb(0%, 0%, 0%)" fill-opacity="1">
<use xlink:href="#glyph-1-1" x="12.079835" y="66.288709"/>
</g>
<path fill="none" stroke-width="0.3985" stroke-linecap="butt" stroke-linejoin="miter" stroke="rgb(0%, 0%, 0%)" stroke-opacity="1" stroke-miterlimit="10" d="M 28.497149 69.629819 L 24.510511 69.629819 M 32.424986 69.629819 L 36.415543 69.629819 " transform="matrix(0.996493, 0, 0, -0.996493, 6.391853, 97.159066)"/>
<path fill="none" stroke-width="0.797" stroke-linecap="butt" stroke-linejoin="miter" stroke="rgb(0%, 0%, 0%)" stroke-opacity="1" stroke-miterlimit="10" d="M 32.424986 81.534851 L 32.424986 57.720867 " transform="matrix(0.996493, 0, 0, -0.996493, 6.391853, 97.159066)"/>
<path fill="none" stroke-width="2.39102" stroke-linecap="butt" stroke-linejoin="miter" stroke="rgb(0%, 0%, 0%)" stroke-opacity="1" stroke-miterlimit="10" d="M 28.497149 75.580375 L 28.497149 63.675343 " transform="matrix(0.996493, 0, 0, -0.996493, 6.391853, 97.159066)"/>
<path fill-rule="nonzero" fill="rgb(0%, 0%, 0%)" fill-opacity="1" stroke-width="0.3985" stroke-linecap="butt" stroke-linejoin="miter" stroke="rgb(0%, 0%, 0%)" stroke-opacity="1" stroke-miterlimit="10" d="M 26.81939 83.24005 L 26.81939 85.223568 L 22.605393 83.24005 L 26.81939 81.252611 Z M 26.81939 83.24005 " transform="matrix(0.996493, 0, 0, -0.996493, 6.391853, 97.159066)"/>
<g fill="rgb(0%, 0%, 0%)" fill-opacity="1">
<use xlink:href="#glyph-0-1" x="30.003755" y="7.766667"/>
</g>
<g fill="rgb(0%, 0%, 0%)" fill-opacity="1">
<use xlink:href="#glyph-1-1" x="34.757027" y="9.642066"/>
</g>
<g fill="rgb(0%, 0%, 0%)" fill-opacity="1">
<use xlink:href="#glyph-1-0" x="38.945722" y="9.642066"/>
</g>
<path fill="none" stroke-width="0.63483" stroke-linecap="round" stroke-linejoin="miter" stroke="rgb(0%, 0%, 0%)" stroke-opacity="1" stroke-miterlimit="10" d="M 76.505356 69.629819 L 106.269896 70.104139 " transform="matrix(0.996493, 0, 0, -0.996493, 6.391853, 97.159066)"/>
<path fill-rule="nonzero" fill="rgb(0%, 0%, 0%)" fill-opacity="1" stroke-width="0.3985" stroke-linecap="butt" stroke-linejoin="miter" stroke="rgb(0%, 0%, 0%)" stroke-opacity="1" stroke-miterlimit="10" d="M 78.092955 69.629819 C 78.092955 70.503978 77.383435 71.213498 76.505356 71.213498 C 75.627277 71.213498 74.917757 70.503978 74.917757 69.629819 C 74.917757 68.75174 75.627277 68.04222 76.505356 68.04222 C 77.383435 68.04222 78.092955 68.75174 78.092955 69.629819 Z M 78.092955 69.629819 " transform="matrix(0.996493, 0, 0, -0.996493, 6.391853, 97.159066)"/>
<path fill-rule="nonzero" fill="rgb(0%, 0%, 0%)" fill-opacity="1" stroke-width="0.3985" stroke-linecap="butt" stroke-linejoin="miter" stroke="rgb(0%, 0%, 0%)" stroke-opacity="1" stroke-miterlimit="10" d="M 107.857495 69.629819 C 107.857495 70.503978 107.144055 71.213498 106.269896 71.213498 C 105.391816 71.213498 104.682297 70.503978 104.682297 69.629819 C 104.682297 68.75174 105.391816 68.04222 106.269896 68.04222 C 107.144055 68.04222 107.857495 68.75174 107.857495 69.629819 Z M 107.857495 69.629819 " transform="matrix(0.996493, 0, 0, -0.996493, 6.391853, 97.159066)"/>
<g clip-path="url(#clip-4)">
<path fill="none" stroke-width="0.3985" stroke-linecap="butt" stroke-linejoin="miter" stroke="rgb(0%, 0%, 0%)" stroke-opacity="1" stroke-miterlimit="10" d="M -0.00123209 -0.00109383 L -0.00123209 -52.219378 M -0.00123209 -52.219378 L -0.00123209 -104.441583 L 49.018335 -104.441583 M 72.832318 -104.441583 L 176.822008 -104.441583 M 190.632159 -90.831352 L 174.916889 -90.831352 M 188.72704 -104.441583 L 243.697163 -104.441583 L 243.697163 -52.219378 M 243.697163 -52.219378 L 243.697163 -0.00109383 " transform="matrix(0.996493, 0, 0, -0.996493, 6.391853, 97.159066)"/>
</g>
<path fill-rule="nonzero" fill="rgb(0%, 0%, 0%)" fill-opacity="1" d="M 7.972656 201.234375 C 7.972656 200.363281 7.265625 199.652344 6.390625 199.652344 C 5.519531 199.652344 4.808594 200.363281 4.808594 201.234375 C 4.808594 202.109375 5.519531 202.816406 6.390625 202.816406 C 7.265625 202.816406 7.972656 202.109375 7.972656 201.234375 Z M 7.972656 201.234375 "/>
<g clip-path="url(#clip-5)">
<path fill="none" stroke-width="0.3985" stroke-linecap="butt" stroke-linejoin="miter" stroke="rgb(0%, 0%, 0%)" stroke-opacity="1" stroke-miterlimit="10" d="M 1.586367 -104.441583 C 1.586367 -103.567424 0.876847 -102.853984 -0.00123209 -102.853984 C -0.875391 -102.853984 -1.588831 -103.567424 -1.588831 -104.441583 C -1.588831 -105.319662 -0.875391 -106.029182 -0.00123209 -106.029182 C 0.876847 -106.029182 1.586367 -105.319662 1.586367 -104.441583 Z M 1.586367 -104.441583 " transform="matrix(0.996493, 0, 0, -0.996493, 6.391853, 97.159066)"/>
</g>
<path fill="none" stroke-width="0.3985" stroke-linecap="butt" stroke-linejoin="miter" stroke="rgb(0%, 0%, 0%)" stroke-opacity="1" stroke-miterlimit="10" d="M -0.00123209 -104.441583 L -0.00123209 -114.363096 " transform="matrix(0.996493, 0, 0, -0.996493, 6.391853, 97.159066)"/>
<g clip-path="url(#clip-6)">
<path fill="none" stroke-width="0.797" stroke-linecap="round" stroke-linejoin="miter" stroke="rgb(0%, 0%, 0%)" stroke-opacity="1" stroke-miterlimit="10" d="M -5.951788 -114.363096 L 5.953244 -114.363096 " transform="matrix(0.996493, 0, 0, -0.996493, 6.391853, 97.159066)"/>
</g>
<g clip-path="url(#clip-7)">
<path fill-rule="nonzero" fill="rgb(100%, 94.898987%, 0%)" fill-opacity="1" d="M 67.101562 189.371094 C 60.550781 189.371094 55.238281 194.683594 55.238281 201.234375 C 55.238281 207.789062 60.550781 213.097656 67.101562 213.097656 C 73.65625 213.097656 78.96875 207.789062 78.96875 201.234375 C 78.96875 194.683594 73.65625 189.371094 67.101562 189.371094 Z M 67.101562 189.371094 "/>
</g>
<g clip-path="url(#clip-8)">
<path fill="none" stroke-width="0.797" stroke-linecap="butt" stroke-linejoin="miter" stroke="rgb(0%, 0%, 0%)" stroke-opacity="1" stroke-miterlimit="10" d="M 60.923367 -92.536551 C 54.349531 -92.536551 49.018335 -97.867747 49.018335 -104.441583 C 49.018335 -111.019338 54.349531 -116.346615 60.923367 -116.346615 C 67.501122 -116.346615 72.832318 -111.019338 72.832318 -104.441583 C 72.832318 -97.867747 67.501122 -92.536551 60.923367 -92.536551 Z M 60.923367 -92.536551 " transform="matrix(0.996493, 0, 0, -0.996493, 6.391853, 97.159066)"/>
</g>
<g clip-path="url(#clip-9)">
<path fill="none" stroke-width="0.797" stroke-linecap="butt" stroke-linejoin="miter" stroke="rgb(0%, 0%, 0%)" stroke-opacity="1" stroke-miterlimit="10" d="M 52.507132 -96.025349 L 69.343521 -112.861737 M 52.507132 -112.861737 L 69.343521 -96.025349 " transform="matrix(0.996493, 0, 0, -0.996493, 6.391853, 97.159066)"/>
</g>
<path fill-rule="nonzero" fill="rgb(0%, 0%, 0%)" fill-opacity="1" stroke-width="0.3985" stroke-linecap="butt" stroke-linejoin="miter" stroke="rgb(0%, 0%, 0%)" stroke-opacity="1" stroke-miterlimit="10" d="M 26.24707 -104.441583 L 26.24707 -102.458064 L 22.029153 -104.441583 L 26.24707 -106.425102 Z M 26.24707 -104.441583 " transform="matrix(0.996493, 0, 0, -0.996493, 6.391853, 97.159066)"/>
<g fill="rgb(0%, 0%, 0%)" fill-opacity="1">
<use xlink:href="#glyph-0-0" x="27.148802" y="196.109827"/>
</g>
<g fill="rgb(0%, 0%, 0%)" fill-opacity="1">
<use xlink:href="#glyph-1-2" x="29.658968" y="197.985227"/>
</g>
<path fill="none" stroke-width="0.3985" stroke-linecap="butt" stroke-linejoin="miter" stroke="rgb(0%, 0%, 0%)" stroke-opacity="1" stroke-miterlimit="10" d="M 180.808645 -104.441583 L 176.822008 -104.441583 M 184.740403 -104.441583 L 188.72704 -104.441583 " transform="matrix(0.996493, 0, 0, -0.996493, 6.391853, 97.159066)"/>
<g clip-path="url(#clip-10)">
<path fill="none" stroke-width="0.797" stroke-linecap="butt" stroke-linejoin="miter" stroke="rgb(0%, 0%, 0%)" stroke-opacity="1" stroke-miterlimit="10" d="M 184.740403 -92.536551 L 184.740403 -116.346615 " transform="matrix(0.996493, 0, 0, -0.996493, 6.391853, 97.159066)"/>
</g>
<path fill="none" stroke-width="2.39102" stroke-linecap="butt" stroke-linejoin="miter" stroke="rgb(0%, 0%, 0%)" stroke-opacity="1" stroke-miterlimit="10" d="M 180.808645 -98.491027 L 180.808645 -110.396059 " transform="matrix(0.996493, 0, 0, -0.996493, 6.391853, 97.159066)"/>
<path fill-rule="nonzero" fill="rgb(0%, 0%, 0%)" fill-opacity="1" stroke-width="0.3985" stroke-linecap="butt" stroke-linejoin="miter" stroke="rgb(0%, 0%, 0%)" stroke-opacity="1" stroke-miterlimit="10" d="M 179.134806 -90.831352 L 179.134806 -88.847834 L 174.916889 -90.831352 L 179.134806 -92.814871 Z M 179.134806 -90.831352 " transform="matrix(0.996493, 0, 0, -0.996493, 6.391853, 97.159066)"/>
<g fill="rgb(0%, 0%, 0%)" fill-opacity="1">
<use xlink:href="#glyph-0-1" x="181.655046" y="181.166418"/>
</g>
<g fill="rgb(0%, 0%, 0%)" fill-opacity="1">
<use xlink:href="#glyph-1-2" x="186.408317" y="183.042814"/>
</g>
<g fill="rgb(0%, 0%, 0%)" fill-opacity="1">
<use xlink:href="#glyph-1-0" x="190.847191" y="183.042814"/>
</g>
</svg>
